STARTFONT 2.1
FONT -FontForge-Minercraftory-Book-R-Normal--30-290-75-75-P-222-ISO10646-1
SIZE 29 75 75
FONTBOUNDINGBOX 35 47 -1 -9
COMMENT "Generated by fontforge, http://fontforge.sourceforge.net"
COMMENT "(c) 2009, 2010, 2011, 2012, 2013 GrandChaos9000. Some Rights Reserved."
STARTPROPERTIES 39
FOUNDRY "FontForge"
FAMILY_NAME "Minercraftory"
WEIGHT_NAME "Book"
SLANT "R"
SETWIDTH_NAME "Normal"
ADD_STYLE_NAME ""
PIXEL_SIZE 30
POINT_SIZE 290
RESOLUTION_X 75
RESOLUTION_Y 75
SPACING "P"
AVERAGE_WIDTH 222
CHARSET_REGISTRY "ISO10646"
CHARSET_ENCODING "1"
FONTNAME_REGISTRY ""
CHARSET_COLLECTIONS "ISO10646-1"
FONT_NAME "MinercraftoryRegular"
FACE_NAME "Minercraftory Regular"
COPYRIGHT "(c) 2009, 2010, 2011, 2012, 2013 GrandChaos9000. Some Rights Reserved."
FONT_VERSION "v1.35 - 2/6/2013"
FONT_ASCENT 24
FONT_DESCENT 6
UNDERLINE_POSITION -4
UNDERLINE_THICKNESS 3
X_HEIGHT 22
CAP_HEIGHT 28
RAW_ASCENT 799
RAW_DESCENT 200
NORM_SPACE 12
RELATIVE_WEIGHT 40
RELATIVE_SETWIDTH 50
SUPERSCRIPT_X 0
SUPERSCRIPT_Y 14
SUPERSCRIPT_SIZE 19
SUBSCRIPT_X 0
SUBSCRIPT_Y 4
SUBSCRIPT_SIZE 19
AVG_LOWERCASE_WIDTH 228
AVG_UPPERCASE_WIDTH 232
ENDPROPERTIES
CHARS 171
STARTCHAR space
ENCODING 32
SWIDTH 390 0
DWIDTH 12 0
BBX 1 1 0 0
BITMAP
00
ENDCHAR
STARTCHAR exclam
ENCODING 33
SWIDTH 390 0
DWIDTH 12 0
BBX 9 29 1 0
BITMAP
FF80
FF80
FF80
FF80
FF80
FF80
FF80
FF80
FF80
FF80
FF80
FF80
FF80
FF80
FF80
FF80
FF80
FF80
FF80
FF80
0000
0000
0000
FF80
FF80
FF80
FF80
FF80
FF80
ENDCHAR
STARTCHAR quotedbl
ENCODING 34
SWIDTH 781 0
DWIDTH 23 0
BBX 21 11 1 18
BITMAP
FF8FF8
FF8FF8
FF8FF8
FF8FF8
FF8FF8
FF8FF8
1F81F8
1F81F8
FC0FC0
FC0FC0
FC0FC0
ENDCHAR
STARTCHAR numbersign
ENCODING 35
SWIDTH 976 0
DWIDTH 29 0
BBX 27 29 1 0
BITMAP
1FF1FF00
1FF1FF00
1FF1FF00
1FF1FF00
1FF1FF00
1FF1FF00
FFFFFFE0
FFFFFFE0
FFFFFFE0
FFFFFFE0
FFFFFFE0
1FF1FF00
1FF1FF00
1FF1FF00
1FF1FF00
1FF1FF00
1FF1FF00
FFFFFFE0
FFFFFFE0
FFFFFFE0
FFFFFFE0
FFFFFFE0
FFFFFFE0
1FF1FF00
1FF1FF00
1FF1FF00
1FF1FF00
1FF1FF00
1FF1FF00
ENDCHAR
STARTCHAR ampersand
ENCODING 38
SWIDTH 781 0
DWIDTH 23 0
BBX 21 29 1 0
BITMAP
1FFFF8
1FFFF8
1FFFF8
FFFFF8
FFFFF8
FFFFF8
FF8000
FF8000
FF8000
FF8000
FF8000
1FFFF8
1FFFF8
1FFFF8
FFFFF8
FFFFF8
FFFFF8
FF8FF8
FF8FF8
FF8FF8
FF8FF8
FF8FF8
FF8FF8
FFFFF8
FFFFF8
FFFFF8
1FFFC0
1FFFC0
1FFFC0
ENDCHAR
STARTCHAR quotesingle
ENCODING 39
SWIDTH 390 0
DWIDTH 12 0
BBX 9 11 1 18
BITMAP
FF80
FF80
FF80
FF80
FF80
FF80
1F80
1F80
FC00
FC00
FC00
ENDCHAR
STARTCHAR parenleft
ENCODING 40
SWIDTH 488 0
DWIDTH 15 0
BBX 12 29 1 0
BITMAP
1FF0
1FF0
1FF0
FFF0
FFF0
FFF0
FF80
FF80
FF80
FF80
FF80
FF80
FF80
FF80
FF80
FF80
FF80
FF80
FF80
FF80
FF80
FF80
FF80
FFF0
FFF0
FFF0
1FF0
1FF0
1FF0
ENDCHAR
STARTCHAR parenright
ENCODING 41
SWIDTH 488 0
DWIDTH 15 0
BBX 12 29 1 0
BITMAP
FF80
FF80
FF80
FFF0
FFF0
FFF0
1FF0
1FF0
1FF0
1FF0
1FF0
1FF0
1FF0
1FF0
1FF0
1FF0
1FF0
1FF0
1FF0
1FF0
1FF0
1FF0
1FF0
FFF0
FFF0
FFF0
FF80
FF80
FF80
ENDCHAR
STARTCHAR comma
ENCODING 44
SWIDTH 390 0
DWIDTH 12 0
BBX 9 12 1 -6
BITMAP
FF80
FF80
FF80
FF80
FF80
FF80
1F80
1F80
1F80
FC00
FC00
FC00
ENDCHAR
STARTCHAR hyphen
ENCODING 45
SWIDTH 488 0
DWIDTH 15 0
BBX 12 5 1 12
BITMAP
FFF0
FFF0
FFF0
FFF0
FFF0
ENDCHAR
STARTCHAR period
ENCODING 46
SWIDTH 390 0
DWIDTH 12 0
BBX 9 6 1 0
BITMAP
FF80
FF80
FF80
FF80
FF80
FF80
ENDCHAR
STARTCHAR zero
ENCODING 48
SWIDTH 781 0
DWIDTH 23 0
BBX 21 29 1 0
BITMAP
FFFFF8
FFFFF8
FFFFF8
FFFFF8
FFFFF8
FFFFF8
FF8FF8
FF8FF8
FF8FF8
FF8FF8
FF8FF8
FF8FF8
FF8FF8
FF8FF8
FF8FF8
FF8FF8
FF8FF8
FF8FF8
FF8FF8
FF8FF8
FF8FF8
FF8FF8
FF8FF8
FFFFF8
FFFFF8
FFFFF8
FFFFF8
FFFFF8
FFFFF8
ENDCHAR
STARTCHAR one
ENCODING 49
SWIDTH 488 0
DWIDTH 15 0
BBX 12 29 1 0
BITMAP
FFF0
FFF0
FFF0
FFF0
FFF0
FFF0
1FF0
1FF0
1FF0
1FF0
1FF0
1FF0
1FF0
1FF0
1FF0
1FF0
1FF0
1FF0
1FF0
1FF0
1FF0
1FF0
1FF0
1FF0
1FF0
1FF0
1FF0
1FF0
1FF0
ENDCHAR
STARTCHAR two
ENCODING 50
SWIDTH 781 0
DWIDTH 23 0
BBX 21 29 1 0
BITMAP
FFFFC0
FFFFC0
FFFFC0
FFFFF8
FFFFF8
FFFFF8
000FF8
000FF8
000FF8
000FF8
000FF8
1FFFF8
1FFFF8
1FFFF8
FFFFC0
FFFFC0
FFFFC0
FF8000
FF8000
FF8000
FF8000
FF8000
FF8000
FFFFF8
FFFFF8
FFFFF8
FFFFF8
FFFFF8
FFFFF8
ENDCHAR
STARTCHAR three
ENCODING 51
SWIDTH 781 0
DWIDTH 23 0
BBX 21 29 1 0
BITMAP
FFFFC0
FFFFC0
FFFFC0
FFFFF8
FFFFF8
FFFFF8
000FF8
000FF8
000FF8
000FF8
000FF8
FFFFC0
FFFFC0
FFFFC0
FFFFF8
FFFFF8
FFFFF8
000FF8
000FF8
000FF8
000FF8
000FF8
000FF8
FFFFF8
FFFFF8
FFFFF8
FFFFC0
FFFFC0
FFFFC0
ENDCHAR
STARTCHAR four
ENCODING 52
SWIDTH 781 0
DWIDTH 23 0
BBX 21 29 1 0
BITMAP
FF8FF8
FF8FF8
FF8FF8
FF8FF8
FF8FF8
FF8FF8
FF8FF8
FF8FF8
FF8FF8
FF8FF8
FF8FF8
FFFFF8
FFFFF8
FFFFF8
FFFFF8
FFFFF8
FFFFF8
000FF8
000FF8
000FF8
000FF8
000FF8
000FF8
000FF8
000FF8
000FF8
000FF8
000FF8
000FF8
ENDCHAR
STARTCHAR five
ENCODING 53
SWIDTH 781 0
DWIDTH 23 0
BBX 21 29 1 0
BITMAP
FFFFF8
FFFFF8
FFFFF8
FFFFF8
FFFFF8
FFFFF8
FF8000
FF8000
FF8000
FF8000
FF8000
FFFFC0
FFFFC0
FFFFC0
FFFFF8
FFFFF8
FFFFF8
000FF8
000FF8
000FF8
000FF8
000FF8
000FF8
FFFFF8
FFFFF8
FFFFF8
FFFFC0
FFFFC0
FFFFC0
ENDCHAR
STARTCHAR six
ENCODING 54
SWIDTH 781 0
DWIDTH 23 0
BBX 21 29 1 0
BITMAP
FFFFF8
FFFFF8
FFFFF8
FFFFF8
FFFFF8
FFFFF8
FF8000
FF8000
FF8000
FF8000
FF8000
FFFFF8
FFFFF8
FFFFF8
FFFFF8
FFFFF8
FFFFF8
FF8FF8
FF8FF8
FF8FF8
FF8FF8
FF8FF8
FF8FF8
FFFFF8
FFFFF8
FFFFF8
FFFFF8
FFFFF8
FFFFF8
ENDCHAR
STARTCHAR seven
ENCODING 55
SWIDTH 781 0
DWIDTH 23 0
BBX 21 29 1 0
BITMAP
FFFFF8
FFFFF8
FFFFF8
FFFFF8
FFFFF8
FFFFF8
000FF8
000FF8
000FF8
000FF8
000FF8
007FC0
007FC0
007FC0
03FE00
03FE00
03FE00
03FE00
03FE00
03FE00
03FE00
03FE00
03FE00
03FE00
03FE00
03FE00
03FE00
03FE00
03FE00
ENDCHAR
STARTCHAR eight
ENCODING 56
SWIDTH 781 0
DWIDTH 23 0
BBX 21 29 1 0
BITMAP
FFFFF8
FFFFF8
FFFFF8
FFFFF8
FFFFF8
FFFFF8
FF8FF8
FF8FF8
FF8FF8
FF8FF8
FF8FF8
1FFFC0
1FFFC0
1FFFC0
FFFFF8
FFFFF8
FFFFF8
FF8FF8
FF8FF8
FF8FF8
FF8FF8
FF8FF8
FF8FF8
FFFFF8
FFFFF8
FFFFF8
FFFFF8
FFFFF8
FFFFF8
ENDCHAR
STARTCHAR nine
ENCODING 57
SWIDTH 781 0
DWIDTH 23 0
BBX 21 29 1 0
BITMAP
FFFFF8
FFFFF8
FFFFF8
FFFFF8
FFFFF8
FFFFF8
FF8FF8
FF8FF8
FF8FF8
FF8FF8
FF8FF8
FFFFF8
FFFFF8
FFFFF8
FFFFF8
FFFFF8
FFFFF8
000FF8
000FF8
000FF8
000FF8
000FF8
000FF8
FFFFF8
FFFFF8
FFFFF8
FFFFF8
FFFFF8
FFFFF8
ENDCHAR
STARTCHAR equal
ENCODING 61
SWIDTH 781 0
DWIDTH 23 0
BBX 21 29 1 0
BITMAP
FFFFF8
FFFFF8
FFFFF8
FFFFF8
FFFFF8
FFFFF8
FC71F8
FC71F8
FF8FF8
FF8FF8
FF03F8
FF03F8
FF03F8
FF73F8
FFFFF8
FFFFF8
FFFFF8
FFFFF8
FFFFF8
FFFFF8
FF8FF8
FF8FF8
FF8FF8
FF8FF8
FF8FF8
FF8FF8
FF8FF8
FF8FF8
FF8FF8
ENDCHAR
STARTCHAR question
ENCODING 63
SWIDTH 781 0
DWIDTH 23 0
BBX 21 29 1 0
BITMAP
FFFFC0
FFFFC0
FFFFC0
FFFFF8
FFFFF8
FFFFF8
000FF8
000FF8
000FF8
000FF8
000FF8
007FF8
007FF8
007FF8
03FFC0
03FFC0
03FFC0
03FE00
03FE00
03FE00
000000
000000
000000
03FE00
03FE00
03FE00
03FE00
03FE00
03FE00
ENDCHAR
STARTCHAR A
ENCODING 65
SWIDTH 781 0
DWIDTH 23 0
BBX 21 29 1 0
BITMAP
FFFFF8
FFFFF8
FFFFF8
FFFFF8
FFFFF8
FFFFF8
FF8FF8
FF8FF8
FF8FF8
FF8FF8
FF8FF8
FFFFF8
FFFFF8
FFFFF8
FFFFF8
FFFFF8
FFFFF8
FF8FF8
FF8FF8
FF8FF8
FF8FF8
FF8FF8
FF8FF8
FF8FF8
FF8FF8
FF8FF8
FF8FF8
FF8FF8
FF8FF8
ENDCHAR
STARTCHAR B
ENCODING 66
SWIDTH 781 0
DWIDTH 23 0
BBX 21 29 1 0
BITMAP
FFFFF8
FFFFF8
FFFFF8
FFFFF8
FFFFF8
FFFFF8
FF8FF8
FF8FF8
FF8FF8
FF8FF8
FF8FF8
FFFFC0
FFFFC0
FFFFC0
FFFFF8
FFFFF8
FFFFF8
FF8FF8
FF8FF8
FF8FF8
FF8FF8
FF8FF8
FF8FF8
FFFFF8
FFFFF8
FFFFF8
FFFFF8
FFFFF8
FFFFF8
ENDCHAR
STARTCHAR C
ENCODING 67
SWIDTH 781 0
DWIDTH 23 0
BBX 21 29 1 0
BITMAP
FFFFF8
FFFFF8
FFFFF8
FFFFF8
FFFFF8
FFFFF8
FF8000
FF8000
FF8000
FF8000
FF8000
FF8000
FF8000
FF8000
FF8000
FF8000
FF8000
FF8000
FF8000
FF8000
FF8000
FF8000
FF8000
FFFFF8
FFFFF8
FFFFF8
FFFFF8
FFFFF8
FFFFF8
ENDCHAR
STARTCHAR D
ENCODING 68
SWIDTH 781 0
DWIDTH 23 0
BBX 21 29 1 0
BITMAP
FFFFC0
FFFFC0
FFFFC0
FFFFF8
FFFFF8
FFFFF8
FF8FF8
FF8FF8
FF8FF8
FF8FF8
FF8FF8
FF8FF8
FF8FF8
FF8FF8
FF8FF8
FF8FF8
FF8FF8
FF8FF8
FF8FF8
FF8FF8
FF8FF8
FF8FF8
FF8FF8
FFFFF8
FFFFF8
FFFFF8
FFFFC0
FFFFC0
FFFFC0
ENDCHAR
STARTCHAR E
ENCODING 69
SWIDTH 781 0
DWIDTH 23 0
BBX 21 29 1 0
BITMAP
FFFFF8
FFFFF8
FFFFF8
FFFFF8
FFFFF8
FFFFF8
FF8000
FF8000
FF8000
FF8000
FF8000
FFFFF8
FFFFF8
FFFFF8
FFFFF8
FFFFF8
FFFFF8
FF8000
FF8000
FF8000
FF8000
FF8000
FF8000
FFFFF8
FFFFF8
FFFFF8
FFFFF8
FFFFF8
FFFFF8
ENDCHAR
STARTCHAR F
ENCODING 70
SWIDTH 781 0
DWIDTH 23 0
BBX 21 29 1 0
BITMAP
FFFFF8
FFFFF8
FFFFF8
FFFFF8
FFFFF8
FFFFF8
FF8000
FF8000
FF8000
FF8000
FF8000
FFFFF8
FFFFF8
FFFFF8
FFFFF8
FFFFF8
FFFFF8
FF8000
FF8000
FF8000
FF8000
FF8000
FF8000
FF8000
FF8000
FF8000
FF8000
FF8000
FF8000
ENDCHAR
STARTCHAR G
ENCODING 71
SWIDTH 781 0
DWIDTH 23 0
BBX 21 29 1 0
BITMAP
FFFFF8
FFFFF8
FFFFF8
FFFFF8
FFFFF8
FFFFF8
FF8000
FF8000
FF8000
FF8000
FF8000
FF8FF8
FF8FF8
FF8FF8
FF8FF8
FF8FF8
FF8FF8
FF8FF8
FF8FF8
FF8FF8
FF8FF8
FF8FF8
FF8FF8
FFFFF8
FFFFF8
FFFFF8
FFFFF8
FFFFF8
FFFFF8
ENDCHAR
STARTCHAR H
ENCODING 72
SWIDTH 781 0
DWIDTH 23 0
BBX 21 29 1 0
BITMAP
FF8FF8
FF8FF8
FF8FF8
FF8FF8
FF8FF8
FF8FF8
FF8FF8
FF8FF8
FF8FF8
FF8FF8
FF8FF8
FFFFF8
FFFFF8
FFFFF8
FFFFF8
FFFFF8
FFFFF8
FF8FF8
FF8FF8
FF8FF8
FF8FF8
FF8FF8
FF8FF8
FF8FF8
FF8FF8
FF8FF8
FF8FF8
FF8FF8
FF8FF8
ENDCHAR
STARTCHAR I
ENCODING 73
SWIDTH 390 0
DWIDTH 12 0
BBX 9 29 1 0
BITMAP
FF80
FF80
FF80
FF80
FF80
FF80
FF80
FF80
FF80
FF80
FF80
FF80
FF80
FF80
FF80
FF80
FF80
FF80
FF80
FF80
FF80
FF80
FF80
FF80
FF80
FF80
FF80
FF80
FF80
ENDCHAR
STARTCHAR J
ENCODING 74
SWIDTH 683 0
DWIDTH 21 0
BBX 18 29 1 0
BITMAP
007FC0
007FC0
007FC0
007FC0
007FC0
007FC0
007FC0
007FC0
007FC0
007FC0
007FC0
007FC0
007FC0
007FC0
007FC0
007FC0
007FC0
007FC0
007FC0
007FC0
007FC0
007FC0
007FC0
FFFFC0
FFFFC0
FFFFC0
FFFFC0
FFFFC0
FFFFC0
ENDCHAR
STARTCHAR K
ENCODING 75
SWIDTH 781 0
DWIDTH 23 0
BBX 21 29 1 0
BITMAP
FF8FF8
FF8FF8
FF8FF8
FF8FF8
FF8FF8
FF8FF8
FF8FF8
FF8FF8
FF8FF8
FF8FF8
FF8FF8
FFFFC0
FFFFC0
FFFFC0
FFFFF8
FFFFF8
FFFFF8
FF8FF8
FF8FF8
FF8FF8
FF8FF8
FF8FF8
FF8FF8
FF8FF8
FF8FF8
FF8FF8
FF8FF8
FF8FF8
FF8FF8
ENDCHAR
STARTCHAR L
ENCODING 76
SWIDTH 683 0
DWIDTH 21 0
BBX 18 29 1 0
BITMAP
FF8000
FF8000
FF8000
FF8000
FF8000
FF8000
FF8000
FF8000
FF8000
FF8000
FF8000
FF8000
FF8000
FF8000
FF8000
FF8000
FF8000
FF8000
FF8000
FF8000
FF8000
FF8000
FF8000
FFFFC0
FFFFC0
FFFFC0
FFFFC0
FFFFC0
FFFFC0
ENDCHAR
STARTCHAR M
ENCODING 77
SWIDTH 1074 0
DWIDTH 32 0
BBX 30 29 1 0
BITMAP
FF8007FC
FF8007FC
FF8007FC
FF8007FC
FF8007FC
FF8007FC
FFF03FFC
FFF03FFC
FFF03FFC
FFF03FFC
FFF03FFC
FFFFFFFC
FFFFFFFC
FFFFFFFC
FFFFFFFC
FFFFFFFC
FFFFFFFC
FF8FC7FC
FF8FC7FC
FF8FC7FC
FF8FC7FC
FF8FC7FC
FF8FC7FC
FF8007FC
FF8007FC
FF8007FC
FF8007FC
FF8007FC
FF8007FC
ENDCHAR
STARTCHAR N
ENCODING 78
SWIDTH 878 0
DWIDTH 26 0
BBX 24 29 1 0
BITMAP
FF81FF
FF81FF
FF81FF
FF81FF
FF81FF
FF81FF
FFF1FF
FFF1FF
FFF1FF
FFF1FF
FFF1FF
FFFFFF
FFFFFF
FFFFFF
FF8FFF
FF8FFF
FF8FFF
FF8FFF
FF8FFF
FF8FFF
FF81FF
FF81FF
FF81FF
FF81FF
FF81FF
FF81FF
FF81FF
FF81FF
FF81FF
ENDCHAR
STARTCHAR O
ENCODING 79
SWIDTH 781 0
DWIDTH 23 0
BBX 21 29 1 0
BITMAP
FFFFF8
FFFFF8
FFFFF8
FFFFF8
FFFFF8
FFFFF8
FF8FF8
FF8FF8
FF8FF8
FF8FF8
FF8FF8
FF8FF8
FF8FF8
FF8FF8
FF8FF8
FF8FF8
FF8FF8
FF8FF8
FF8FF8
FF8FF8
FF8FF8
FF8FF8
FF8FF8
FFFFF8
FFFFF8
FFFFF8
FFFFF8
FFFFF8
FFFFF8
ENDCHAR
STARTCHAR P
ENCODING 80
SWIDTH 781 0
DWIDTH 23 0
BBX 21 29 1 0
BITMAP
FFFFF8
FFFFF8
FFFFF8
FFFFF8
FFFFF8
FFFFF8
FF8FF8
FF8FF8
FF8FF8
FF8FF8
FF8FF8
FFFFF8
FFFFF8
FFFFF8
FFFFF8
FFFFF8
FFFFF8
FF8000
FF8000
FF8000
FF8000
FF8000
FF8000
FF8000
FF8000
FF8000
FF8000
FF8000
FF8000
ENDCHAR
STARTCHAR Q
ENCODING 81
SWIDTH 781 0
DWIDTH 23 0
BBX 21 35 1 -6
BITMAP
FFFFF8
FFFFF8
FFFFF8
FFFFF8
FFFFF8
FFFFF8
FF8FF8
FF8FF8
FF8FF8
FF8FF8
FF8FF8
FF8FF8
FF8FF8
FF8FF8
FF8FF8
FF8FF8
FF8FF8
FF8FF8
FF8FF8
FF8FF8
FF8FF8
FF8FF8
FF8FF8
FFFFF8
FFFFF8
FFFFF8
FFFFC0
FFFFC0
FFFFC0
007FF8
007FF8
007FF8
000FF8
000FF8
000FF8
ENDCHAR
STARTCHAR R
ENCODING 82
SWIDTH 781 0
DWIDTH 23 0
BBX 21 29 1 0
BITMAP
FFFFF8
FFFFF8
FFFFF8
FFFFF8
FFFFF8
FFFFF8
FF8FF8
FF8FF8
FF8FF8
FF8FF8
FF8FF8
FFFFC0
FFFFC0
FFFFC0
FFFFF8
FFFFF8
FFFFF8
FF8FF8
FF8FF8
FF8FF8
FF8FF8
FF8FF8
FF8FF8
FF8FF8
FF8FF8
FF8FF8
FF8FF8
FF8FF8
FF8FF8
ENDCHAR
STARTCHAR S
ENCODING 83
SWIDTH 781 0
DWIDTH 23 0
BBX 21 29 1 0
BITMAP
FFFFF8
FFFFF8
FFFFF8
FFFFF8
FFFFF8
FFFFF8
FF8000
FF8000
FF8000
FF8000
FF8000
FFFFF8
FFFFF8
FFFFF8
FFFFF8
FFFFF8
FFFFF8
000FF8
000FF8
000FF8
000FF8
000FF8
000FF8
FFFFF8
FFFFF8
FFFFF8
FFFFF8
FFFFF8
FFFFF8
ENDCHAR
STARTCHAR T
ENCODING 84
SWIDTH 781 0
DWIDTH 23 0
BBX 21 29 1 0
BITMAP
FFFFF8
FFFFF8
FFFFF8
FFFFF8
FFFFF8
FFFFF8
03FE00
03FE00
03FE00
03FE00
03FE00
03FE00
03FE00
03FE00
03FE00
03FE00
03FE00
03FE00
03FE00
03FE00
03FE00
03FE00
03FE00
03FE00
03FE00
03FE00
03FE00
03FE00
03FE00
ENDCHAR
STARTCHAR U
ENCODING 85
SWIDTH 781 0
DWIDTH 23 0
BBX 21 29 1 0
BITMAP
FF8FF8
FF8FF8
FF8FF8
FF8FF8
FF8FF8
FF8FF8
FF8FF8
FF8FF8
FF8FF8
FF8FF8
FF8FF8
FF8FF8
FF8FF8
FF8FF8
FF8FF8
FF8FF8
FF8FF8
FF8FF8
FF8FF8
FF8FF8
FF8FF8
FF8FF8
FF8FF8
FFFFF8
FFFFF8
FFFFF8
FFFFF8
FFFFF8
FFFFF8
ENDCHAR
STARTCHAR V
ENCODING 86
SWIDTH 781 0
DWIDTH 23 0
BBX 21 29 1 0
BITMAP
FF8FF8
FF8FF8
FF8FF8
FF8FF8
FF8FF8
FF8FF8
FF8FF8
FF8FF8
FF8FF8
FF8FF8
FF8FF8
FF8FF8
FF8FF8
FF8FF8
FF8FF8
FF8FF8
FF8FF8
FF8FF8
FF8FF8
FF8FF8
1F8FC0
1F8FC0
1F8FC0
1FFFC0
1FFFC0
1FFFC0
03FE00
03FE00
03FE00
ENDCHAR
STARTCHAR W
ENCODING 87
SWIDTH 1074 0
DWIDTH 32 0
BBX 30 29 1 0
BITMAP
FF8007FC
FF8007FC
FF8007FC
FF8007FC
FF8007FC
FF8007FC
FF8FC7FC
FF8FC7FC
FF8FC7FC
FF8FC7FC
FF8FC7FC
FF8FC7FC
FF8FC7FC
FF8FC7FC
FF8FC7FC
FF8FC7FC
FF8FC7FC
1FFFFFE0
1FFFFFE0
1FFFFFE0
1FFFFFE0
1FFFFFE0
1FFFFFE0
1FF03FE0
1FF03FE0
1FF03FE0
1FF03FE0
1FF03FE0
1FF03FE0
ENDCHAR
STARTCHAR X
ENCODING 88
SWIDTH 781 0
DWIDTH 23 0
BBX 21 29 1 0
BITMAP
FF8FF8
FF8FF8
FF8FF8
FF8FF8
FF8FF8
FF8FF8
FF8FF8
FF8FF8
FF8FF8
FF8FF8
FF8FF8
1FFFC0
1FFFC0
1FFFC0
FFFFF8
FFFFF8
FFFFF8
FF8FF8
FF8FF8
FF8FF8
FF8FF8
FF8FF8
FF8FF8
FF8FF8
FF8FF8
FF8FF8
FF8FF8
FF8FF8
FF8FF8
ENDCHAR
STARTCHAR Y
ENCODING 89
SWIDTH 781 0
DWIDTH 23 0
BBX 21 29 1 0
BITMAP
FF8FF8
FF8FF8
FF8FF8
FF8FF8
FF8FF8
FF8FF8
FF8FF8
FF8FF8
FF8FF8
FF8FF8
FF8FF8
FFFFF8
FFFFF8
FFFFF8
FFFFF8
FFFFF8
FFFFF8
03FE00
03FE00
03FE00
03FE00
03FE00
03FE00
03FE00
03FE00
03FE00
03FE00
03FE00
03FE00
ENDCHAR
STARTCHAR Z
ENCODING 90
SWIDTH 781 0
DWIDTH 23 0
BBX 21 29 1 0
BITMAP
FFFFF8
FFFFF8
FFFFF8
FFFFF8
FFFFF8
FFFFF8
000FF8
000FF8
007FF8
007FF8
007FF8
03FFC0
03FFC0
03FFC0
1FFE00
1FFE00
1FFE00
FFF000
FFF000
FFF000
FF8000
FF8000
FF8000
FFFFF8
FFFFF8
FFFFF8
FFFFF8
FFFFF8
FFFFF8
ENDCHAR
STARTCHAR bracketleft
ENCODING 91
SWIDTH 488 0
DWIDTH 15 0
BBX 12 29 1 0
BITMAP
FFF0
FFF0
FFF0
FFF0
FFF0
FFF0
FF80
FF80
FF80
FF80
FF80
FF80
FF80
FF80
FF80
FF80
FF80
FF80
FF80
FF80
FF80
FF80
FF80
FFF0
FFF0
FFF0
FFF0
FFF0
FFF0
ENDCHAR
STARTCHAR bracketright
ENCODING 93
SWIDTH 488 0
DWIDTH 15 0
BBX 12 29 1 0
BITMAP
FFF0
FFF0
FFF0
FFF0
FFF0
FFF0
1FF0
1FF0
1FF0
1FF0
1FF0
1FF0
1FF0
1FF0
1FF0
1FF0
1FF0
1FF0
1FF0
1FF0
1FF0
1FF0
1FF0
FFF0
FFF0
FFF0
FFF0
FFF0
FFF0
ENDCHAR
STARTCHAR a
ENCODING 97
SWIDTH 781 0
DWIDTH 23 0
BBX 21 23 1 0
BITMAP
FFFFF8
FFFFF8
FFFFF8
FFFFF8
FFFFF8
000FF8
000FF8
000FF8
FFFFF8
FFFFF8
FFFFF8
FFFFF8
FFFFF8
FFFFF8
FF8FF8
FF8FF8
FF8FF8
FFFFF8
FFFFF8
FFFFF8
FFFFF8
FFFFF8
FFFFF8
ENDCHAR
STARTCHAR b
ENCODING 98
SWIDTH 781 0
DWIDTH 23 0
BBX 21 29 1 0
BITMAP
FF8000
FF8000
FF8000
FF8000
FF8000
FF8000
FFFFF8
FFFFF8
FFFFF8
FFFFF8
FFFFF8
FF8FF8
FF8FF8
FF8FF8
FF8FF8
FF8FF8
FF8FF8
FF8FF8
FF8FF8
FF8FF8
FF8FF8
FF8FF8
FF8FF8
FFFFF8
FFFFF8
FFFFF8
FFFFF8
FFFFF8
FFFFF8
ENDCHAR
STARTCHAR c
ENCODING 99
SWIDTH 781 0
DWIDTH 23 0
BBX 21 23 1 0
BITMAP
FFFFF8
FFFFF8
FFFFF8
FFFFF8
FFFFF8
FF8000
FF8000
FF8000
FF8000
FF8000
FF8000
FF8000
FF8000
FF8000
FF8000
FF8000
FF8000
FFFFF8
FFFFF8
FFFFF8
FFFFF8
FFFFF8
FFFFF8
ENDCHAR
STARTCHAR d
ENCODING 100
SWIDTH 781 0
DWIDTH 23 0
BBX 21 29 1 0
BITMAP
000FF8
000FF8
000FF8
000FF8
000FF8
000FF8
FFFFF8
FFFFF8
FFFFF8
FFFFF8
FFFFF8
FF8FF8
FF8FF8
FF8FF8
FF8FF8
FF8FF8
FF8FF8
FF8FF8
FF8FF8
FF8FF8
FF8FF8
FF8FF8
FF8FF8
FFFFF8
FFFFF8
FFFFF8
FFFFF8
FFFFF8
FFFFF8
ENDCHAR
STARTCHAR e
ENCODING 101
SWIDTH 781 0
DWIDTH 23 0
BBX 21 23 1 0
BITMAP
FFFFF8
FFFFF8
FFFFF8
FFFFF8
FFFFF8
FF8FF8
FF8FF8
FF8FF8
FFFFF8
FFFFF8
FFFFF8
FFFFF8
FFFFF8
FFFFF8
FF8000
FF8000
FF8000
FFFFF8
FFFFF8
FFFFF8
FFFFF8
FFFFF8
FFFFF8
ENDCHAR
STARTCHAR f
ENCODING 102
SWIDTH 585 0
DWIDTH 18 0
BBX 15 29 1 0
BITMAP
FFFE
FFFE
FFFE
FFFE
FFFE
FFFE
FF80
FF80
FFFE
FFFE
FFFE
FFFE
FFFE
FFFE
FF80
FF80
FF80
FF80
FF80
FF80
FF80
FF80
FF80
FF80
FF80
FF80
FF80
FF80
FF80
ENDCHAR
STARTCHAR g
ENCODING 103
SWIDTH 781 0
DWIDTH 23 0
BBX 21 29 1 -6
BITMAP
FFFFF8
FFFFF8
FFFFF8
FFFFF8
FFFFF8
FF8FF8
FF8FF8
FF8FF8
FF8FF8
FF8FF8
FF8FF8
FF8FF8
FF8FF8
FF8FF8
FFFFF8
FFFFF8
FFFFF8
FFFFF8
FFFFF8
FFFFF8
000FF8
000FF8
000FF8
FFFFF8
FFFFF8
FFFFF8
FFFFF8
FFFFF8
FFFFF8
ENDCHAR
STARTCHAR h
ENCODING 104
SWIDTH 781 0
DWIDTH 23 0
BBX 21 29 1 0
BITMAP
FF8000
FF8000
FF8000
FF8000
FF8000
FF8000
FFFFF8
FFFFF8
FFFFF8
FFFFF8
FFFFF8
FF8FF8
FF8FF8
FF8FF8
FF8FF8
FF8FF8
FF8FF8
FF8FF8
FF8FF8
FF8FF8
FF8FF8
FF8FF8
FF8FF8
FF8FF8
FF8FF8
FF8FF8
FF8FF8
FF8FF8
FF8FF8
ENDCHAR
STARTCHAR i
ENCODING 105
SWIDTH 390 0
DWIDTH 12 0
BBX 9 29 1 0
BITMAP
FF80
FF80
FF80
FF80
FF80
FF80
0000
0000
FF80
FF80
FF80
FF80
FF80
FF80
FF80
FF80
FF80
FF80
FF80
FF80
FF80
FF80
FF80
FF80
FF80
FF80
FF80
FF80
FF80
ENDCHAR
STARTCHAR j
ENCODING 106
SWIDTH 585 0
DWIDTH 18 0
BBX 15 35 1 -6
BITMAP
03FE
03FE
03FE
03FE
03FE
03FE
0000
0000
03FE
03FE
03FE
03FE
03FE
03FE
03FE
03FE
03FE
03FE
03FE
03FE
03FE
03FE
03FE
03FE
03FE
03FE
03FE
03FE
03FE
FFFE
FFFE
FFFE
FFFE
FFFE
FFFE
ENDCHAR
STARTCHAR k
ENCODING 107
SWIDTH 781 0
DWIDTH 23 0
BBX 21 29 1 0
BITMAP
FF8000
FF8000
FF8000
FF8000
FF8000
FF8000
FF8FF8
FF8FF8
FF8FF8
FF8FF8
FF8FF8
FF8FF8
FF8FF8
FF8FF8
FFFFC0
FFFFC0
FFFFC0
FFFFF8
FFFFF8
FFFFF8
FF8FF8
FF8FF8
FF8FF8
FF8FF8
FF8FF8
FF8FF8
FF8FF8
FF8FF8
FF8FF8
ENDCHAR
STARTCHAR l
ENCODING 108
SWIDTH 390 0
DWIDTH 12 0
BBX 9 29 1 0
BITMAP
FF80
FF80
FF80
FF80
FF80
FF80
FF80
FF80
FF80
FF80
FF80
FF80
FF80
FF80
FF80
FF80
FF80
FF80
FF80
FF80
FF80
FF80
FF80
FF80
FF80
FF80
FF80
FF80
FF80
ENDCHAR
STARTCHAR m
ENCODING 109
SWIDTH 1171 0
DWIDTH 35 0
BBX 33 23 1 0
BITMAP
FFFE3FFF80
FFFE3FFF80
FFFFFFFF80
FFFFFFFF80
FFFFFFFF80
FF8FF8FF80
FF8FF8FF80
FF8FF8FF80
FF8FF8FF80
FF8FF8FF80
FF8FF8FF80
FF8FF8FF80
FF8FF8FF80
FF8FF8FF80
FF8FF8FF80
FF8FF8FF80
FF8FF8FF80
FF8FF8FF80
FF8FF8FF80
FF8FF8FF80
FF8FF8FF80
FF8FF8FF80
FF8FF8FF80
ENDCHAR
STARTCHAR n
ENCODING 110
SWIDTH 781 0
DWIDTH 23 0
BBX 21 23 1 0
BITMAP
FFFFF8
FFFFF8
FFFFF8
FFFFF8
FFFFF8
FF8FF8
FF8FF8
FF8FF8
FF8FF8
FF8FF8
FF8FF8
FF8FF8
FF8FF8
FF8FF8
FF8FF8
FF8FF8
FF8FF8
FF8FF8
FF8FF8
FF8FF8
FF8FF8
FF8FF8
FF8FF8
ENDCHAR
STARTCHAR o
ENCODING 111
SWIDTH 781 0
DWIDTH 23 0
BBX 21 23 1 0
BITMAP
FFFFF8
FFFFF8
FFFFF8
FFFFF8
FFFFF8
FF8FF8
FF8FF8
FF8FF8
FF8FF8
FF8FF8
FF8FF8
FF8FF8
FF8FF8
FF8FF8
FF8FF8
FF8FF8
FF8FF8
FFFFF8
FFFFF8
FFFFF8
FFFFF8
FFFFF8
FFFFF8
ENDCHAR
STARTCHAR p
ENCODING 112
SWIDTH 781 0
DWIDTH 23 0
BBX 21 32 1 -9
BITMAP
FFFFF8
FFFFF8
FFFFF8
FFFFF8
FFFFF8
FF8FF8
FF8FF8
FF8FF8
FF8FF8
FF8FF8
FF8FF8
FF8FF8
FF8FF8
FF8FF8
FF8FF8
FF8FF8
FF8FF8
FFFFF8
FFFFF8
FFFFF8
FFFFF8
FFFFF8
FFFFF8
FF8000
FF8000
FF8000
FF8000
FF8000
FF8000
FF8000
FF8000
FF8000
ENDCHAR
STARTCHAR q
ENCODING 113
SWIDTH 781 0
DWIDTH 23 0
BBX 21 32 1 -9
BITMAP
FFFFF8
FFFFF8
FFFFF8
FFFFF8
FFFFF8
FF8FF8
FF8FF8
FF8FF8
FF8FF8
FF8FF8
FF8FF8
FF8FF8
FF8FF8
FF8FF8
FF8FF8
FF8FF8
FF8FF8
FFFFF8
FFFFF8
FFFFF8
FFFFF8
FFFFF8
FFFFF8
000FF8
000FF8
000FF8
000FF8
000FF8
000FF8
000FF8
000FF8
000FF8
ENDCHAR
STARTCHAR r
ENCODING 114
SWIDTH 683 0
DWIDTH 21 0
BBX 18 23 1 0
BITMAP
FFFFC0
FFFFC0
FFFFC0
FFFFC0
FFFFC0
FF8000
FF8000
FF8000
FF8000
FF8000
FF8000
FF8000
FF8000
FF8000
FF8000
FF8000
FF8000
FF8000
FF8000
FF8000
FF8000
FF8000
FF8000
ENDCHAR
STARTCHAR s
ENCODING 115
SWIDTH 781 0
DWIDTH 23 0
BBX 21 23 1 0
BITMAP
FFFFF8
FFFFF8
FFFFF8
FFFFF8
FFFFF8
FF8000
FF8000
FF8000
FFFFF8
FFFFF8
FFFFF8
FFFFF8
FFFFF8
FFFFF8
000FF8
000FF8
000FF8
FFFFF8
FFFFF8
FFFFF8
FFFFF8
FFFFF8
FFFFF8
ENDCHAR
STARTCHAR t
ENCODING 116
SWIDTH 585 0
DWIDTH 18 0
BBX 15 29 1 0
BITMAP
FF80
FF80
FF80
FF80
FF80
FF80
FFFE
FFFE
FFFE
FFFE
FFFE
FF80
FF80
FF80
FF80
FF80
FF80
FF80
FF80
FF80
FF80
FF80
FF80
FFFE
FFFE
FFFE
FFFE
FFFE
FFFE
ENDCHAR
STARTCHAR u
ENCODING 117
SWIDTH 781 0
DWIDTH 23 0
BBX 21 23 1 0
BITMAP
FF8FF8
FF8FF8
FF8FF8
FF8FF8
FF8FF8
FF8FF8
FF8FF8
FF8FF8
FF8FF8
FF8FF8
FF8FF8
FF8FF8
FF8FF8
FF8FF8
FF8FF8
FF8FF8
FF8FF8
FFFFF8
FFFFF8
FFFFF8
FFFFF8
FFFFF8
FFFFF8
ENDCHAR
STARTCHAR v
ENCODING 118
SWIDTH 781 0
DWIDTH 23 0
BBX 21 23 1 0
BITMAP
FF8FF8
FF8FF8
FF8FF8
FF8FF8
FF8FF8
FF8FF8
FF8FF8
FF8FF8
FF8FF8
FF8FF8
FF8FF8
FF8FF8
FF8FF8
FF8FF8
1F8FC0
1F8FC0
1F8FC0
1FFFC0
1FFFC0
1FFFC0
03FE00
03FE00
03FE00
ENDCHAR
STARTCHAR w
ENCODING 119
SWIDTH 1074 0
DWIDTH 32 0
BBX 30 23 1 0
BITMAP
FF8007FC
FF8007FC
FF8FC7FC
FF8FC7FC
FF8FC7FC
FF8FC7FC
FF8FC7FC
FF8FC7FC
FF8FC7FC
FF8FC7FC
FF8FC7FC
FF8FC7FC
FF8FC7FC
FF8FC7FC
FFFFFFFC
FFFFFFFC
FFFFFFFC
1FFFFFE0
1FFFFFE0
1FFFFFE0
1FF03FE0
1FF03FE0
1FF03FE0
ENDCHAR
STARTCHAR x
ENCODING 120
SWIDTH 781 0
DWIDTH 23 0
BBX 21 23 1 0
BITMAP
FF8FF8
FF8FF8
FF8FF8
FF8FF8
FF8FF8
FF8FF8
FF8FF8
FF8FF8
1FFFC0
1FFFC0
1FFFC0
FFFFF8
FFFFF8
FFFFF8
FF8FF8
FF8FF8
FF8FF8
FF8FF8
FF8FF8
FF8FF8
FF8FF8
FF8FF8
FF8FF8
ENDCHAR
STARTCHAR y
ENCODING 121
SWIDTH 781 0
DWIDTH 23 0
BBX 21 29 1 -6
BITMAP
FF8FF8
FF8FF8
FF8FF8
FF8FF8
FF8FF8
FF8FF8
FF8FF8
FF8FF8
FF8FF8
FF8FF8
FF8FF8
FF8FF8
FF8FF8
FF8FF8
FFFFF8
FFFFF8
FFFFF8
FFFFF8
FFFFF8
FFFFF8
000FF8
000FF8
000FF8
FFFFF8
FFFFF8
FFFFF8
FFFFF8
FFFFF8
FFFFF8
ENDCHAR
STARTCHAR z
ENCODING 122
SWIDTH 781 0
DWIDTH 23 0
BBX 21 23 1 0
BITMAP
FFFFF8
FFFFF8
FFFFF8
FFFFF8
FFFFF8
007FF8
007FF8
007FF8
03FFC0
03FFC0
03FFC0
1FFE00
1FFE00
1FFE00
FFF000
FFF000
FFF000
FFFFF8
FFFFF8
FFFFF8
FFFFF8
FFFFF8
FFFFF8
ENDCHAR
STARTCHAR uni00A0
ENCODING 160
SWIDTH 390 0
DWIDTH 12 0
BBX 1 1 0 0
BITMAP
00
ENDCHAR
STARTCHAR exclamdown
ENCODING 161
SWIDTH 390 0
DWIDTH 12 0
BBX 9 29 1 0
BITMAP
FF80
FF80
FF80
FF80
FF80
FF80
0000
0000
FF80
FF80
FF80
FF80
FF80
FF80
FF80
FF80
FF80
FF80
FF80
FF80
FF80
FF80
FF80
FF80
FF80
FF80
FF80
FF80
FF80
ENDCHAR
STARTCHAR questiondown
ENCODING 191
SWIDTH 781 0
DWIDTH 23 0
BBX 21 29 1 0
BITMAP
03FE00
03FE00
03FE00
03FE00
03FE00
03FE00
000000
000000
03FE00
03FE00
03FE00
1FFE00
1FFE00
1FFE00
FFF000
FFF000
FFF000
FF8000
FF8000
FF8000
FF8000
FF8000
FF8000
FFFFF8
FFFFF8
FFFFF8
1FFFF8
1FFFF8
1FFFF8
ENDCHAR
STARTCHAR Agrave
ENCODING 192
SWIDTH 781 0
DWIDTH 23 0
BBX 21 38 1 0
BITMAP
1FF000
1FF000
1FF000
03FE00
03FE00
03FE00
000000
000000
000000
FFFFF8
FFFFF8
FFFFF8
FFFFF8
FFFFF8
FFFFF8
FF8FF8
FF8FF8
FF8FF8
FF8FF8
FF8FF8
FFFFF8
FFFFF8
FFFFF8
FFFFF8
FFFFF8
FFFFF8
FF8FF8
FF8FF8
FF8FF8
FF8FF8
FF8FF8
FF8FF8
FF8FF8
FF8FF8
FF8FF8
FF8FF8
FF8FF8
FF8FF8
ENDCHAR
STARTCHAR Aacute
ENCODING 193
SWIDTH 781 0
DWIDTH 23 0
BBX 21 38 1 0
BITMAP
007FC0
007FC0
007FC0
03FE00
03FE00
03FE00
000000
000000
000000
FFFFF8
FFFFF8
FFFFF8
FFFFF8
FFFFF8
FFFFF8
FF8FF8
FF8FF8
FF8FF8
FF8FF8
FF8FF8
FFFFF8
FFFFF8
FFFFF8
FFFFF8
FFFFF8
FFFFF8
FF8FF8
FF8FF8
FF8FF8
FF8FF8
FF8FF8
FF8FF8
FF8FF8
FF8FF8
FF8FF8
FF8FF8
FF8FF8
FF8FF8
ENDCHAR
STARTCHAR Acircumflex
ENCODING 194
SWIDTH 781 0
DWIDTH 23 0
BBX 21 38 1 0
BITMAP
1FFFC0
1FFFC0
1FFFC0
FF8FF8
FF8FF8
FF8FF8
000000
000000
000000
FFFFF8
FFFFF8
FFFFF8
FFFFF8
FFFFF8
FFFFF8
FF8FF8
FF8FF8
FF8FF8
FF8FF8
FF8FF8
FFFFF8
FFFFF8
FFFFF8
FFFFF8
FFFFF8
FFFFF8
FF8FF8
FF8FF8
FF8FF8
FF8FF8
FF8FF8
FF8FF8
FF8FF8
FF8FF8
FF8FF8
FF8FF8
FF8FF8
FF8FF8
ENDCHAR
STARTCHAR Atilde
ENCODING 195
SWIDTH 781 0
DWIDTH 23 0
BBX 21 38 1 0
BITMAP
FFF1F8
FFF1F8
FFF1F8
FC7FF8
FC7FF8
FC7FF8
000000
000000
000000
FFFFF8
FFFFF8
FFFFF8
FFFFF8
FFFFF8
FFFFF8
FF8FF8
FF8FF8
FF8FF8
FF8FF8
FF8FF8
FFFFF8
FFFFF8
FFFFF8
FFFFF8
FFFFF8
FFFFF8
FF8FF8
FF8FF8
FF8FF8
FF8FF8
FF8FF8
FF8FF8
FF8FF8
FF8FF8
FF8FF8
FF8FF8
FF8FF8
FF8FF8
ENDCHAR
STARTCHAR Adieresis
ENCODING 196
SWIDTH 781 0
DWIDTH 23 0
BBX 21 38 1 0
BITMAP
FF8FF8
FF8FF8
FF8FF8
FF8FF8
FF8FF8
FF8FF8
000000
000000
000000
FFFFF8
FFFFF8
FFFFF8
FFFFF8
FFFFF8
FFFFF8
FF8FF8
FF8FF8
FF8FF8
FF8FF8
FF8FF8
FFFFF8
FFFFF8
FFFFF8
FFFFF8
FFFFF8
FFFFF8
FF8FF8
FF8FF8
FF8FF8
FF8FF8
FF8FF8
FF8FF8
FF8FF8
FF8FF8
FF8FF8
FF8FF8
FF8FF8
FF8FF8
ENDCHAR
STARTCHAR Aring
ENCODING 197
SWIDTH 781 0
DWIDTH 23 0
BBX 21 38 1 0
BITMAP
03FE00
03FE00
03FE00
03FE00
03FE00
03FE00
000000
000000
000000
FFFFF8
FFFFF8
FFFFF8
FFFFF8
FFFFF8
FFFFF8
FF8FF8
FF8FF8
FF8FF8
FF8FF8
FF8FF8
FFFFF8
FFFFF8
FFFFF8
FFFFF8
FFFFF8
FFFFF8
FF8FF8
FF8FF8
FF8FF8
FF8FF8
FF8FF8
FF8FF8
FF8FF8
FF8FF8
FF8FF8
FF8FF8
FF8FF8
FF8FF8
ENDCHAR
STARTCHAR AE
ENCODING 198
SWIDTH 1171 0
DWIDTH 35 0
BBX 33 29 1 0
BITMAP
FFFFFFFF80
FFFFFFFF80
FFFFFFFF80
FFFFFFFF80
FFFFFFFF80
FFFFFFFF80
FF8FF80000
FF8FF80000
FF8FF80000
FF8FF80000
FF8FF80000
FFFFFFFF80
FFFFFFFF80
FFFFFFFF80
FFFFFFFF80
FFFFFFFF80
FFFFFFFF80
FF8FF80000
FF8FF80000
FF8FF80000
FF8FF80000
FF8FF80000
FF8FF80000
FF8FFFFF80
FF8FFFFF80
FF8FFFFF80
FF8FFFFF80
FF8FFFFF80
FF8FFFFF80
ENDCHAR
STARTCHAR Ccedilla
ENCODING 199
SWIDTH 781 0
DWIDTH 23 0
BBX 21 38 1 -9
BITMAP
FFFFF8
FFFFF8
FFFFF8
FFFFF8
FFFFF8
FFFFF8
FF8000
FF8000
FF8000
FF8000
FF8000
FF8000
FF8000
FF8000
FF8000
FF8000
FF8000
FF8000
FF8000
FF8000
FF8000
FF8000
FF8000
FFFFF8
FFFFF8
FFFFF8
FFFFF8
FFFFF8
FFFFF8
000000
000000
000000
007FC0
007FC0
007FC0
03FE00
03FE00
03FE00
ENDCHAR
STARTCHAR Egrave
ENCODING 200
SWIDTH 781 0
DWIDTH 23 0
BBX 21 38 1 0
BITMAP
1FF000
1FF000
1FF000
03FE00
03FE00
03FE00
000000
000000
000000
FFFFF8
FFFFF8
FFFFF8
FFFFF8
FFFFF8
FFFFF8
FF8000
FF8000
FF8000
FF8000
FF8000
FFFFF8
FFFFF8
FFFFF8
FFFFF8
FFFFF8
FFFFF8
FF8000
FF8000
FF8000
FF8000
FF8000
FF8000
FFFFF8
FFFFF8
FFFFF8
FFFFF8
FFFFF8
FFFFF8
ENDCHAR
STARTCHAR Eacute
ENCODING 201
SWIDTH 781 0
DWIDTH 23 0
BBX 21 38 1 0
BITMAP
007FC0
007FC0
007FC0
03FE00
03FE00
03FE00
000000
000000
000000
FFFFF8
FFFFF8
FFFFF8
FFFFF8
FFFFF8
FFFFF8
FF8000
FF8000
FF8000
FF8000
FF8000
FFFFF8
FFFFF8
FFFFF8
FFFFF8
FFFFF8
FFFFF8
FF8000
FF8000
FF8000
FF8000
FF8000
FF8000
FFFFF8
FFFFF8
FFFFF8
FFFFF8
FFFFF8
FFFFF8
ENDCHAR
STARTCHAR Ecircumflex
ENCODING 202
SWIDTH 781 0
DWIDTH 23 0
BBX 21 38 1 0
BITMAP
1FFFC0
1FFFC0
1FFFC0
FF8FF8
FF8FF8
FF8FF8
000000
000000
000000
FFFFF8
FFFFF8
FFFFF8
FFFFF8
FFFFF8
FFFFF8
FF8000
FF8000
FF8000
FF8000
FF8000
FFFFF8
FFFFF8
FFFFF8
FFFFF8
FFFFF8
FFFFF8
FF8000
FF8000
FF8000
FF8000
FF8000
FF8000
FFFFF8
FFFFF8
FFFFF8
FFFFF8
FFFFF8
FFFFF8
ENDCHAR
STARTCHAR Edieresis
ENCODING 203
SWIDTH 781 0
DWIDTH 23 0
BBX 21 38 1 0
BITMAP
FF8FF8
FF8FF8
FF8FF8
FF8FF8
FF8FF8
FF8FF8
000000
000000
000000
FFFFF8
FFFFF8
FFFFF8
FFFFF8
FFFFF8
FFFFF8
FF8000
FF8000
FF8000
FF8000
FF8000
FFFFF8
FFFFF8
FFFFF8
FFFFF8
FFFFF8
FFFFF8
FF8000
FF8000
FF8000
FF8000
FF8000
FF8000
FFFFF8
FFFFF8
FFFFF8
FFFFF8
FFFFF8
FFFFF8
ENDCHAR
STARTCHAR Igrave
ENCODING 204
SWIDTH 390 0
DWIDTH 12 0
BBX 11 38 -1 0
BITMAP
FF00
FF00
FF00
3FE0
3FE0
3FE0
0000
0000
0000
3FE0
3FE0
3FE0
3FE0
3FE0
3FE0
3FE0
3FE0
3FE0
3FE0
3FE0
3FE0
3FE0
3FE0
3FE0
3FE0
3FE0
3FE0
3FE0
3FE0
3FE0
3FE0
3FE0
3FE0
3FE0
3FE0
3FE0
3FE0
3FE0
ENDCHAR
STARTCHAR Iacute
ENCODING 205
SWIDTH 390 0
DWIDTH 12 0
BBX 12 38 1 0
BITMAP
1FF0
1FF0
1FF0
FF80
FF80
FF80
0000
0000
0000
FF80
FF80
FF80
FF80
FF80
FF80
FF80
FF80
FF80
FF80
FF80
FF80
FF80
FF80
FF80
FF80
FF80
FF80
FF80
FF80
FF80
FF80
FF80
FF80
FF80
FF80
FF80
FF80
FF80
ENDCHAR
STARTCHAR Icircumflex
ENCODING 206
SWIDTH 781 0
DWIDTH 23 0
BBX 21 38 1 0
BITMAP
1FFFC0
1FFFC0
1FFFC0
FF8FF8
FF8FF8
FF8FF8
000000
000000
000000
03FE00
03FE00
03FE00
03FE00
03FE00
03FE00
03FE00
03FE00
03FE00
03FE00
03FE00
03FE00
03FE00
03FE00
03FE00
03FE00
03FE00
03FE00
03FE00
03FE00
03FE00
03FE00
03FE00
03FE00
03FE00
03FE00
03FE00
03FE00
03FE00
ENDCHAR
STARTCHAR Idieresis
ENCODING 207
SWIDTH 781 0
DWIDTH 23 0
BBX 21 38 1 0
BITMAP
FF8FF8
FF8FF8
FF8FF8
FF8FF8
FF8FF8
FF8FF8
000000
000000
000000
03FE00
03FE00
03FE00
03FE00
03FE00
03FE00
03FE00
03FE00
03FE00
03FE00
03FE00
03FE00
03FE00
03FE00
03FE00
03FE00
03FE00
03FE00
03FE00
03FE00
03FE00
03FE00
03FE00
03FE00
03FE00
03FE00
03FE00
03FE00
03FE00
ENDCHAR
STARTCHAR Ntilde
ENCODING 209
SWIDTH 878 0
DWIDTH 26 0
BBX 24 38 1 0
BITMAP
FFFE3F
FFFE3F
FFFE3F
FC7FFF
FC7FFF
FC7FFF
000000
000000
000000
FF81FF
FF81FF
FF81FF
FF81FF
FF81FF
FF81FF
FFF1FF
FFF1FF
FFF1FF
FFF1FF
FFF1FF
FFFFFF
FFFFFF
FFFFFF
FF8FFF
FF8FFF
FF8FFF
FF8FFF
FF8FFF
FF8FFF
FF81FF
FF81FF
FF81FF
FF81FF
FF81FF
FF81FF
FF81FF
FF81FF
FF81FF
ENDCHAR
STARTCHAR Ograve
ENCODING 210
SWIDTH 781 0
DWIDTH 23 0
BBX 21 38 1 0
BITMAP
1FF000
1FF000
1FF000
03FE00
03FE00
03FE00
000000
000000
000000
FFFFF8
FFFFF8
FFFFF8
FFFFF8
FFFFF8
FFFFF8
FF8FF8
FF8FF8
FF8FF8
FF8FF8
FF8FF8
FF8FF8
FF8FF8
FF8FF8
FF8FF8
FF8FF8
FF8FF8
FF8FF8
FF8FF8
FF8FF8
FF8FF8
FF8FF8
FF8FF8
FFFFF8
FFFFF8
FFFFF8
FFFFF8
FFFFF8
FFFFF8
ENDCHAR
STARTCHAR Oacute
ENCODING 211
SWIDTH 781 0
DWIDTH 23 0
BBX 21 38 1 0
BITMAP
007FC0
007FC0
007FC0
03FE00
03FE00
03FE00
000000
000000
000000
FFFFF8
FFFFF8
FFFFF8
FFFFF8
FFFFF8
FFFFF8
FF8FF8
FF8FF8
FF8FF8
FF8FF8
FF8FF8
FF8FF8
FF8FF8
FF8FF8
FF8FF8
FF8FF8
FF8FF8
FF8FF8
FF8FF8
FF8FF8
FF8FF8
FF8FF8
FF8FF8
FFFFF8
FFFFF8
FFFFF8
FFFFF8
FFFFF8
FFFFF8
ENDCHAR
STARTCHAR Ocircumflex
ENCODING 212
SWIDTH 781 0
DWIDTH 23 0
BBX 21 38 1 0
BITMAP
1FFFC0
1FFFC0
1FFFC0
FF8FF8
FF8FF8
FF8FF8
000000
000000
000000
FFFFF8
FFFFF8
FFFFF8
FFFFF8
FFFFF8
FFFFF8
FF8FF8
FF8FF8
FF8FF8
FF8FF8
FF8FF8
FF8FF8
FF8FF8
FF8FF8
FF8FF8
FF8FF8
FF8FF8
FF8FF8
FF8FF8
FF8FF8
FF8FF8
FF8FF8
FF8FF8
FFFFF8
FFFFF8
FFFFF8
FFFFF8
FFFFF8
FFFFF8
ENDCHAR
STARTCHAR Otilde
ENCODING 213
SWIDTH 781 0
DWIDTH 23 0
BBX 21 38 1 0
BITMAP
FFF1F8
FFF1F8
FFF1F8
FC7FF8
FC7FF8
FC7FF8
000000
000000
000000
FFFFF8
FFFFF8
FFFFF8
FFFFF8
FFFFF8
FFFFF8
FF8FF8
FF8FF8
FF8FF8
FF8FF8
FF8FF8
FF8FF8
FF8FF8
FF8FF8
FF8FF8
FF8FF8
FF8FF8
FF8FF8
FF8FF8
FF8FF8
FF8FF8
FF8FF8
FF8FF8
FFFFF8
FFFFF8
FFFFF8
FFFFF8
FFFFF8
FFFFF8
ENDCHAR
STARTCHAR Odieresis
ENCODING 214
SWIDTH 781 0
DWIDTH 23 0
BBX 21 38 1 0
BITMAP
FF8FF8
FF8FF8
FF8FF8
FF8FF8
FF8FF8
FF8FF8
000000
000000
000000
FFFFF8
FFFFF8
FFFFF8
FFFFF8
FFFFF8
FFFFF8
FF8FF8
FF8FF8
FF8FF8
FF8FF8
FF8FF8
FF8FF8
FF8FF8
FF8FF8
FF8FF8
FF8FF8
FF8FF8
FF8FF8
FF8FF8
FF8FF8
FF8FF8
FF8FF8
FF8FF8
FFFFF8
FFFFF8
FFFFF8
FFFFF8
FFFFF8
FFFFF8
ENDCHAR
STARTCHAR Oslash
ENCODING 216
SWIDTH 878 0
DWIDTH 26 0
BBX 24 29 1 0
BITMAP
FFFFFF
FFFFFF
FFFFFF
FFFFFF
FFFFFF
FFFFFF
FF81FF
FF81FF
FF8FFF
FF8FFF
FF8FFF
FFFFFF
FFFFFF
FFFFFF
FFFFFF
FFFFFF
FFFFFF
FFF1FF
FFF1FF
FFF1FF
FF81FF
FF81FF
FF81FF
FFFFFF
FFFFFF
FFFFFF
FFFFFF
FFFFFF
FFFFFF
ENDCHAR
STARTCHAR Ugrave
ENCODING 217
SWIDTH 781 0
DWIDTH 23 0
BBX 21 38 1 0
BITMAP
1FF000
1FF000
1FF000
03FE00
03FE00
03FE00
000000
000000
000000
FF8FF8
FF8FF8
FF8FF8
FF8FF8
FF8FF8
FF8FF8
FF8FF8
FF8FF8
FF8FF8
FF8FF8
FF8FF8
FF8FF8
FF8FF8
FF8FF8
FF8FF8
FF8FF8
FF8FF8
FF8FF8
FF8FF8
FF8FF8
FF8FF8
FF8FF8
FF8FF8
FFFFF8
FFFFF8
FFFFF8
FFFFF8
FFFFF8
FFFFF8
ENDCHAR
STARTCHAR Uacute
ENCODING 218
SWIDTH 781 0
DWIDTH 23 0
BBX 21 38 1 0
BITMAP
007FC0
007FC0
007FC0
03FE00
03FE00
03FE00
000000
000000
000000
FF8FF8
FF8FF8
FF8FF8
FF8FF8
FF8FF8
FF8FF8
FF8FF8
FF8FF8
FF8FF8
FF8FF8
FF8FF8
FF8FF8
FF8FF8
FF8FF8
FF8FF8
FF8FF8
FF8FF8
FF8FF8
FF8FF8
FF8FF8
FF8FF8
FF8FF8
FF8FF8
FFFFF8
FFFFF8
FFFFF8
FFFFF8
FFFFF8
FFFFF8
ENDCHAR
STARTCHAR Ucircumflex
ENCODING 219
SWIDTH 781 0
DWIDTH 23 0
BBX 21 38 1 0
BITMAP
1FFFC0
1FFFC0
1FFFC0
FF8FF8
FF8FF8
FF8FF8
000000
000000
000000
FF8FF8
FF8FF8
FF8FF8
FF8FF8
FF8FF8
FF8FF8
FF8FF8
FF8FF8
FF8FF8
FF8FF8
FF8FF8
FF8FF8
FF8FF8
FF8FF8
FF8FF8
FF8FF8
FF8FF8
FF8FF8
FF8FF8
FF8FF8
FF8FF8
FF8FF8
FF8FF8
FFFFF8
FFFFF8
FFFFF8
FFFFF8
FFFFF8
FFFFF8
ENDCHAR
STARTCHAR Udieresis
ENCODING 220
SWIDTH 781 0
DWIDTH 23 0
BBX 21 38 1 0
BITMAP
FF8FF8
FF8FF8
FF8FF8
FF8FF8
FF8FF8
FF8FF8
000000
000000
000000
FF8FF8
FF8FF8
FF8FF8
FF8FF8
FF8FF8
FF8FF8
FF8FF8
FF8FF8
FF8FF8
FF8FF8
FF8FF8
FF8FF8
FF8FF8
FF8FF8
FF8FF8
FF8FF8
FF8FF8
FF8FF8
FF8FF8
FF8FF8
FF8FF8
FF8FF8
FF8FF8
FFFFF8
FFFFF8
FFFFF8
FFFFF8
FFFFF8
FFFFF8
ENDCHAR
STARTCHAR Yacute
ENCODING 221
SWIDTH 781 0
DWIDTH 23 0
BBX 21 38 1 0
BITMAP
007FC0
007FC0
007FC0
03FE00
03FE00
03FE00
000000
000000
000000
FF8FF8
FF8FF8
FF8FF8
FF8FF8
FF8FF8
FF8FF8
FF8FF8
FF8FF8
FF8FF8
FF8FF8
FF8FF8
FFFFF8
FFFFF8
FFFFF8
FFFFF8
FFFFF8
FFFFF8
03FE00
03FE00
03FE00
03FE00
03FE00
03FE00
03FE00
03FE00
03FE00
03FE00
03FE00
03FE00
ENDCHAR
STARTCHAR Thorn
ENCODING 222
SWIDTH 781 0
DWIDTH 23 0
BBX 21 29 1 0
BITMAP
FF8000
FF8000
FF8000
FF8000
FF8000
FF8000
FFFFF8
FFFFF8
FFFFF8
FFFFF8
FFFFF8
FF8FF8
FF8FF8
FF8FF8
FF8FF8
FF8FF8
FF8FF8
FFFFF8
FFFFF8
FFFFF8
FFFFF8
FFFFF8
FFFFF8
FF8000
FF8000
FF8000
FF8000
FF8000
FF8000
ENDCHAR
STARTCHAR germandbls
ENCODING 223
SWIDTH 878 0
DWIDTH 26 0
BBX 24 29 1 0
BITMAP
FFFFFF
FFFFFF
FFFFFF
FFFFFF
FFFFFF
FFFFFF
FF81FF
FF81FF
FF81FF
FF81FF
FF81FF
FF8FF8
FF8FF8
FF8FF8
FF8FFF
FF8FFF
FF8FFF
FF81FF
FF81FF
FF81FF
FF81FF
FF81FF
FF81FF
FF8FFF
FF8FFF
FF8FFF
FF8FFF
FF8FFF
FF8FFF
ENDCHAR
STARTCHAR agrave
ENCODING 224
SWIDTH 781 0
DWIDTH 23 0
BBX 21 32 1 0
BITMAP
1FF000
1FF000
1FF000
03FE00
03FE00
03FE00
000000
000000
000000
FFFFF8
FFFFF8
FFFFF8
FFFFF8
FFFFF8
000FF8
000FF8
000FF8
FFFFF8
FFFFF8
FFFFF8
FFFFF8
FFFFF8
FFFFF8
FF8FF8
FF8FF8
FF8FF8
FFFFF8
FFFFF8
FFFFF8
FFFFF8
FFFFF8
FFFFF8
ENDCHAR
STARTCHAR aacute
ENCODING 225
SWIDTH 781 0
DWIDTH 23 0
BBX 21 32 1 0
BITMAP
007FC0
007FC0
007FC0
03FE00
03FE00
03FE00
000000
000000
000000
FFFFF8
FFFFF8
FFFFF8
FFFFF8
FFFFF8
000FF8
000FF8
000FF8
FFFFF8
FFFFF8
FFFFF8
FFFFF8
FFFFF8
FFFFF8
FF8FF8
FF8FF8
FF8FF8
FFFFF8
FFFFF8
FFFFF8
FFFFF8
FFFFF8
FFFFF8
ENDCHAR
STARTCHAR acircumflex
ENCODING 226
SWIDTH 781 0
DWIDTH 23 0
BBX 21 32 1 0
BITMAP
1FFFC0
1FFFC0
1FFFC0
FF8FF8
FF8FF8
FF8FF8
000000
000000
000000
FFFFF8
FFFFF8
FFFFF8
FFFFF8
FFFFF8
000FF8
000FF8
000FF8
FFFFF8
FFFFF8
FFFFF8
FFFFF8
FFFFF8
FFFFF8
FF8FF8
FF8FF8
FF8FF8
FFFFF8
FFFFF8
FFFFF8
FFFFF8
FFFFF8
FFFFF8
ENDCHAR
STARTCHAR atilde
ENCODING 227
SWIDTH 781 0
DWIDTH 23 0
BBX 21 32 1 0
BITMAP
FFF1F8
FFF1F8
FFF1F8
FC7FF8
FC7FF8
FC7FF8
000000
000000
000000
FFFFF8
FFFFF8
FFFFF8
FFFFF8
FFFFF8
000FF8
000FF8
000FF8
FFFFF8
FFFFF8
FFFFF8
FFFFF8
FFFFF8
FFFFF8
FF8FF8
FF8FF8
FF8FF8
FFFFF8
FFFFF8
FFFFF8
FFFFF8
FFFFF8
FFFFF8
ENDCHAR
STARTCHAR adieresis
ENCODING 228
SWIDTH 781 0
DWIDTH 23 0
BBX 21 32 1 0
BITMAP
FF8FF8
FF8FF8
FF8FF8
FF8FF8
FF8FF8
FF8FF8
000000
000000
000000
FFFFF8
FFFFF8
FFFFF8
FFFFF8
FFFFF8
000FF8
000FF8
000FF8
FFFFF8
FFFFF8
FFFFF8
FFFFF8
FFFFF8
FFFFF8
FF8FF8
FF8FF8
FF8FF8
FFFFF8
FFFFF8
FFFFF8
FFFFF8
FFFFF8
FFFFF8
ENDCHAR
STARTCHAR aring
ENCODING 229
SWIDTH 781 0
DWIDTH 23 0
BBX 21 32 1 0
BITMAP
03FE00
03FE00
03FE00
03FE00
03FE00
03FE00
000000
000000
000000
FFFFF8
FFFFF8
FFFFF8
FFFFF8
FFFFF8
000FF8
000FF8
000FF8
FFFFF8
FFFFF8
FFFFF8
FFFFF8
FFFFF8
FFFFF8
FF8FF8
FF8FF8
FF8FF8
FFFFF8
FFFFF8
FFFFF8
FFFFF8
FFFFF8
FFFFF8
ENDCHAR
STARTCHAR ae
ENCODING 230
SWIDTH 1171 0
DWIDTH 35 0
BBX 33 23 1 0
BITMAP
FFFFFFFF80
FFFFFFFF80
FFFFFFFF80
FFFFFFFF80
FFFFFFFF80
000FF8FF80
000FF8FF80
000FF8FF80
FFFFFFFF80
FFFFFFFF80
FFFFFFFF80
FFFFFFFF80
FFFFFFFF80
FFFFFFFF80
FF8FF80000
FF8FF80000
FF8FF80000
FFFFFFFF80
FFFFFFFF80
FFFFFFFF80
FFFFFFFF80
FFFFFFFF80
FFFFFFFF80
ENDCHAR
STARTCHAR ccedilla
ENCODING 231
SWIDTH 781 0
DWIDTH 23 0
BBX 21 32 1 -9
BITMAP
FFFFF8
FFFFF8
FFFFF8
FFFFF8
FFFFF8
FF8000
FF8000
FF8000
FF8000
FF8000
FF8000
FF8000
FF8000
FF8000
FF8000
FF8000
FF8000
FFFFF8
FFFFF8
FFFFF8
FFFFF8
FFFFF8
FFFFF8
000000
000000
000000
007FC0
007FC0
007FC0
03FE00
03FE00
03FE00
ENDCHAR
STARTCHAR egrave
ENCODING 232
SWIDTH 781 0
DWIDTH 23 0
BBX 21 32 1 0
BITMAP
1FF000
1FF000
1FF000
03FE00
03FE00
03FE00
000000
000000
000000
FFFFF8
FFFFF8
FFFFF8
FFFFF8
FFFFF8
FF8FF8
FF8FF8
FF8FF8
FFFFF8
FFFFF8
FFFFF8
FFFFF8
FFFFF8
FFFFF8
FF8000
FF8000
FF8000
FFFFF8
FFFFF8
FFFFF8
FFFFF8
FFFFF8
FFFFF8
ENDCHAR
STARTCHAR eacute
ENCODING 233
SWIDTH 781 0
DWIDTH 23 0
BBX 21 32 1 0
BITMAP
007FC0
007FC0
007FC0
03FE00
03FE00
03FE00
000000
000000
000000
FFFFF8
FFFFF8
FFFFF8
FFFFF8
FFFFF8
FF8FF8
FF8FF8
FF8FF8
FFFFF8
FFFFF8
FFFFF8
FFFFF8
FFFFF8
FFFFF8
FF8000
FF8000
FF8000
FFFFF8
FFFFF8
FFFFF8
FFFFF8
FFFFF8
FFFFF8
ENDCHAR
STARTCHAR ecircumflex
ENCODING 234
SWIDTH 781 0
DWIDTH 23 0
BBX 21 32 1 0
BITMAP
1FFFC0
1FFFC0
1FFFC0
FF8FF8
FF8FF8
FF8FF8
000000
000000
000000
FFFFF8
FFFFF8
FFFFF8
FFFFF8
FFFFF8
FF8FF8
FF8FF8
FF8FF8
FFFFF8
FFFFF8
FFFFF8
FFFFF8
FFFFF8
FFFFF8
FF8000
FF8000
FF8000
FFFFF8
FFFFF8
FFFFF8
FFFFF8
FFFFF8
FFFFF8
ENDCHAR
STARTCHAR edieresis
ENCODING 235
SWIDTH 781 0
DWIDTH 23 0
BBX 21 32 1 0
BITMAP
FF8FF8
FF8FF8
FF8FF8
FF8FF8
FF8FF8
FF8FF8
000000
000000
000000
FFFFF8
FFFFF8
FFFFF8
FFFFF8
FFFFF8
FF8FF8
FF8FF8
FF8FF8
FFFFF8
FFFFF8
FFFFF8
FFFFF8
FFFFF8
FFFFF8
FF8000
FF8000
FF8000
FFFFF8
FFFFF8
FFFFF8
FFFFF8
FFFFF8
FFFFF8
ENDCHAR
STARTCHAR igrave
ENCODING 236
SWIDTH 390 0
DWIDTH 12 0
BBX 11 32 -1 0
BITMAP
FF00
FF00
FF00
3FE0
3FE0
3FE0
0000
0000
0000
3FE0
3FE0
3FE0
3FE0
3FE0
3FE0
3FE0
3FE0
3FE0
3FE0
3FE0
3FE0
3FE0
3FE0
3FE0
3FE0
3FE0
3FE0
3FE0
3FE0
3FE0
3FE0
3FE0
ENDCHAR
STARTCHAR iacute
ENCODING 237
SWIDTH 390 0
DWIDTH 12 0
BBX 12 32 1 0
BITMAP
1FF0
1FF0
1FF0
FF80
FF80
FF80
0000
0000
0000
FF80
FF80
FF80
FF80
FF80
FF80
FF80
FF80
FF80
FF80
FF80
FF80
FF80
FF80
FF80
FF80
FF80
FF80
FF80
FF80
FF80
FF80
FF80
ENDCHAR
STARTCHAR icircumflex
ENCODING 238
SWIDTH 781 0
DWIDTH 23 0
BBX 21 32 1 0
BITMAP
1FFFC0
1FFFC0
1FFFC0
FF8FF8
FF8FF8
FF8FF8
000000
000000
000000
03FE00
03FE00
03FE00
03FE00
03FE00
03FE00
03FE00
03FE00
03FE00
03FE00
03FE00
03FE00
03FE00
03FE00
03FE00
03FE00
03FE00
03FE00
03FE00
03FE00
03FE00
03FE00
03FE00
ENDCHAR
STARTCHAR idieresis
ENCODING 239
SWIDTH 781 0
DWIDTH 23 0
BBX 21 32 1 0
BITMAP
FF8FF8
FF8FF8
FF8FF8
FF8FF8
FF8FF8
FF8FF8
000000
000000
000000
03FE00
03FE00
03FE00
03FE00
03FE00
03FE00
03FE00
03FE00
03FE00
03FE00
03FE00
03FE00
03FE00
03FE00
03FE00
03FE00
03FE00
03FE00
03FE00
03FE00
03FE00
03FE00
03FE00
ENDCHAR
STARTCHAR ntilde
ENCODING 241
SWIDTH 781 0
DWIDTH 23 0
BBX 21 32 1 0
BITMAP
FFF1F8
FFF1F8
FFF1F8
FC7FF8
FC7FF8
FC7FF8
000000
000000
000000
FFFFF8
FFFFF8
FFFFF8
FFFFF8
FFFFF8
FF8FF8
FF8FF8
FF8FF8
FF8FF8
FF8FF8
FF8FF8
FF8FF8
FF8FF8
FF8FF8
FF8FF8
FF8FF8
FF8FF8
FF8FF8
FF8FF8
FF8FF8
FF8FF8
FF8FF8
FF8FF8
ENDCHAR
STARTCHAR ograve
ENCODING 242
SWIDTH 781 0
DWIDTH 23 0
BBX 21 32 1 0
BITMAP
1FF000
1FF000
1FF000
03FE00
03FE00
03FE00
000000
000000
000000
FFFFF8
FFFFF8
FFFFF8
FFFFF8
FFFFF8
FF8FF8
FF8FF8
FF8FF8
FF8FF8
FF8FF8
FF8FF8
FF8FF8
FF8FF8
FF8FF8
FF8FF8
FF8FF8
FF8FF8
FFFFF8
FFFFF8
FFFFF8
FFFFF8
FFFFF8
FFFFF8
ENDCHAR
STARTCHAR oacute
ENCODING 243
SWIDTH 781 0
DWIDTH 23 0
BBX 21 32 1 0
BITMAP
007FC0
007FC0
007FC0
03FE00
03FE00
03FE00
000000
000000
000000
FFFFF8
FFFFF8
FFFFF8
FFFFF8
FFFFF8
FF8FF8
FF8FF8
FF8FF8
FF8FF8
FF8FF8
FF8FF8
FF8FF8
FF8FF8
FF8FF8
FF8FF8
FF8FF8
FF8FF8
FFFFF8
FFFFF8
FFFFF8
FFFFF8
FFFFF8
FFFFF8
ENDCHAR
STARTCHAR ocircumflex
ENCODING 244
SWIDTH 781 0
DWIDTH 23 0
BBX 21 32 1 0
BITMAP
1FFFC0
1FFFC0
1FFFC0
FF8FF8
FF8FF8
FF8FF8
000000
000000
000000
FFFFF8
FFFFF8
FFFFF8
FFFFF8
FFFFF8
FF8FF8
FF8FF8
FF8FF8
FF8FF8
FF8FF8
FF8FF8
FF8FF8
FF8FF8
FF8FF8
FF8FF8
FF8FF8
FF8FF8
FFFFF8
FFFFF8
FFFFF8
FFFFF8
FFFFF8
FFFFF8
ENDCHAR
STARTCHAR otilde
ENCODING 245
SWIDTH 781 0
DWIDTH 23 0
BBX 21 32 1 0
BITMAP
FFF1F8
FFF1F8
FFF1F8
FC7FF8
FC7FF8
FC7FF8
000000
000000
000000
FFFFF8
FFFFF8
FFFFF8
FFFFF8
FFFFF8
FF8FF8
FF8FF8
FF8FF8
FF8FF8
FF8FF8
FF8FF8
FF8FF8
FF8FF8
FF8FF8
FF8FF8
FF8FF8
FF8FF8
FFFFF8
FFFFF8
FFFFF8
FFFFF8
FFFFF8
FFFFF8
ENDCHAR
STARTCHAR odieresis
ENCODING 246
SWIDTH 781 0
DWIDTH 23 0
BBX 21 32 1 0
BITMAP
FF8FF8
FF8FF8
FF8FF8
FF8FF8
FF8FF8
FF8FF8
000000
000000
000000
FFFFF8
FFFFF8
FFFFF8
FFFFF8
FFFFF8
FF8FF8
FF8FF8
FF8FF8
FF8FF8
FF8FF8
FF8FF8
FF8FF8
FF8FF8
FF8FF8
FF8FF8
FF8FF8
FF8FF8
FFFFF8
FFFFF8
FFFFF8
FFFFF8
FFFFF8
FFFFF8
ENDCHAR
STARTCHAR oslash
ENCODING 248
SWIDTH 878 0
DWIDTH 26 0
BBX 24 23 1 0
BITMAP
FFFFFF
FFFFFF
FFFFFF
FFFFFF
FFFFFF
FF81FF
FF81FF
FF81FF
FF8FFF
FF8FFF
FF8FFF
FFF1FF
FFF1FF
FFF1FF
FF81FF
FF81FF
FF81FF
FFFFFF
FFFFFF
FFFFFF
FFFFFF
FFFFFF
FFFFFF
ENDCHAR
STARTCHAR ugrave
ENCODING 249
SWIDTH 781 0
DWIDTH 23 0
BBX 21 32 1 0
BITMAP
1FF000
1FF000
1FF000
03FE00
03FE00
03FE00
000000
000000
000000
FF8FF8
FF8FF8
FF8FF8
FF8FF8
FF8FF8
FF8FF8
FF8FF8
FF8FF8
FF8FF8
FF8FF8
FF8FF8
FF8FF8
FF8FF8
FF8FF8
FF8FF8
FF8FF8
FF8FF8
FFFFF8
FFFFF8
FFFFF8
FFFFF8
FFFFF8
FFFFF8
ENDCHAR
STARTCHAR uacute
ENCODING 250
SWIDTH 781 0
DWIDTH 23 0
BBX 21 32 1 0
BITMAP
007FC0
007FC0
007FC0
03FE00
03FE00
03FE00
000000
000000
000000
FF8FF8
FF8FF8
FF8FF8
FF8FF8
FF8FF8
FF8FF8
FF8FF8
FF8FF8
FF8FF8
FF8FF8
FF8FF8
FF8FF8
FF8FF8
FF8FF8
FF8FF8
FF8FF8
FF8FF8
FFFFF8
FFFFF8
FFFFF8
FFFFF8
FFFFF8
FFFFF8
ENDCHAR
STARTCHAR ucircumflex
ENCODING 251
SWIDTH 781 0
DWIDTH 23 0
BBX 21 32 1 0
BITMAP
1FFFC0
1FFFC0
1FFFC0
FF8FF8
FF8FF8
FF8FF8
000000
000000
000000
FF8FF8
FF8FF8
FF8FF8
FF8FF8
FF8FF8
FF8FF8
FF8FF8
FF8FF8
FF8FF8
FF8FF8
FF8FF8
FF8FF8
FF8FF8
FF8FF8
FF8FF8
FF8FF8
FF8FF8
FFFFF8
FFFFF8
FFFFF8
FFFFF8
FFFFF8
FFFFF8
ENDCHAR
STARTCHAR udieresis
ENCODING 252
SWIDTH 781 0
DWIDTH 23 0
BBX 21 32 1 0
BITMAP
FF8FF8
FF8FF8
FF8FF8
FF8FF8
FF8FF8
FF8FF8
000000
000000
000000
FF8FF8
FF8FF8
FF8FF8
FF8FF8
FF8FF8
FF8FF8
FF8FF8
FF8FF8
FF8FF8
FF8FF8
FF8FF8
FF8FF8
FF8FF8
FF8FF8
FF8FF8
FF8FF8
FF8FF8
FFFFF8
FFFFF8
FFFFF8
FFFFF8
FFFFF8
FFFFF8
ENDCHAR
STARTCHAR yacute
ENCODING 253
SWIDTH 781 0
DWIDTH 23 0
BBX 21 38 1 -6
BITMAP
007FC0
007FC0
007FC0
03FE00
03FE00
03FE00
000000
000000
000000
FF8FF8
FF8FF8
FF8FF8
FF8FF8
FF8FF8
FF8FF8
FF8FF8
FF8FF8
FF8FF8
FF8FF8
FF8FF8
FF8FF8
FF8FF8
FF8FF8
FFFFF8
FFFFF8
FFFFF8
FFFFF8
FFFFF8
FFFFF8
000FF8
000FF8
000FF8
FFFFF8
FFFFF8
FFFFF8
FFFFF8
FFFFF8
FFFFF8
ENDCHAR
STARTCHAR thorn
ENCODING 254
SWIDTH 781 0
DWIDTH 23 0
BBX 21 35 1 -6
BITMAP
FF8000
FF8000
FF8000
FF8000
FF8000
FF8000
FFFFF8
FFFFF8
FFFFF8
FFFFF8
FFFFF8
FF8FF8
FF8FF8
FF8FF8
FF8FF8
FF8FF8
FF8FF8
FF8FF8
FF8FF8
FF8FF8
FF8FF8
FF8FF8
FF8FF8
FFFFF8
FFFFF8
FFFFF8
FFFFF8
FFFFF8
FFFFF8
FF8000
FF8000
FF8000
FF8000
FF8000
FF8000
ENDCHAR
STARTCHAR ydieresis
ENCODING 255
SWIDTH 781 0
DWIDTH 23 0
BBX 21 38 1 -6
BITMAP
FF8FF8
FF8FF8
FF8FF8
FF8FF8
FF8FF8
FF8FF8
000000
000000
000000
FF8FF8
FF8FF8
FF8FF8
FF8FF8
FF8FF8
FF8FF8
FF8FF8
FF8FF8
FF8FF8
FF8FF8
FF8FF8
FF8FF8
FF8FF8
FF8FF8
FFFFF8
FFFFF8
FFFFF8
FFFFF8
FFFFF8
FFFFF8
000FF8
000FF8
000FF8
FFFFF8
FFFFF8
FFFFF8
FFFFF8
FFFFF8
FFFFF8
ENDCHAR
STARTCHAR Ccaron
ENCODING 268
SWIDTH 781 0
DWIDTH 23 0
BBX 21 29 1 0
BITMAP
FFFFF8
FFFFF8
FFFFF8
FFFFF8
FFFFF8
FFFFF8
FF8000
FF8000
FF8000
FF8000
FF8000
FF8000
FF8000
FF8000
FF8000
FF8000
FF8000
FF8000
FF8000
FF8000
FF8000
FF8000
FF8000
FFFFF8
FFFFF8
FFFFF8
FFFFF8
FFFFF8
FFFFF8
ENDCHAR
STARTCHAR ccaron
ENCODING 269
SWIDTH 781 0
DWIDTH 23 0
BBX 21 23 1 0
BITMAP
FFFFF8
FFFFF8
FFFFF8
FFFFF8
FFFFF8
FF8000
FF8000
FF8000
FF8000
FF8000
FF8000
FF8000
FF8000
FF8000
FF8000
FF8000
FF8000
FFFFF8
FFFFF8
FFFFF8
FFFFF8
FFFFF8
FFFFF8
ENDCHAR
STARTCHAR Dcaron
ENCODING 270
SWIDTH 781 0
DWIDTH 23 0
BBX 21 38 1 0
BITMAP
FF8FF8
FF8FF8
FF8FF8
1FFFC0
1FFFC0
1FFFC0
000000
000000
000000
FFFFC0
FFFFC0
FFFFC0
FFFFF8
FFFFF8
FFFFF8
FF8FF8
FF8FF8
FF8FF8
FF8FF8
FF8FF8
FF8FF8
FF8FF8
FF8FF8
FF8FF8
FF8FF8
FF8FF8
FF8FF8
FF8FF8
FF8FF8
FF8FF8
FF8FF8
FF8FF8
FFFFF8
FFFFF8
FFFFF8
FFFFC0
FFFFC0
FFFFC0
ENDCHAR
STARTCHAR dcaron
ENCODING 271
SWIDTH 1171 0
DWIDTH 35 0
BBX 33 29 1 0
BITMAP
000FF8FF80
000FF8FF80
000FF8FF80
000FF8FF80
000FF8FF80
000FF8FF80
FFFFF81F80
FFFFF81F80
FFFFF8FC00
FFFFF8FC00
FFFFF8FC00
FF8FF80000
FF8FF80000
FF8FF80000
FF8FF80000
FF8FF80000
FF8FF80000
FF8FF80000
FF8FF80000
FF8FF80000
FF8FF80000
FF8FF80000
FF8FF80000
FFFFF80000
FFFFF80000
FFFFF80000
FFFFF80000
FFFFF80000
FFFFF80000
ENDCHAR
STARTCHAR Ecaron
ENCODING 282
SWIDTH 781 0
DWIDTH 23 0
BBX 21 38 1 0
BITMAP
FF8FF8
FF8FF8
FF8FF8
1FFFC0
1FFFC0
1FFFC0
000000
000000
000000
FFFFF8
FFFFF8
FFFFF8
FFFFF8
FFFFF8
FFFFF8
FF8000
FF8000
FF8000
FF8000
FF8000
FFFFF8
FFFFF8
FFFFF8
FFFFF8
FFFFF8
FFFFF8
FF8000
FF8000
FF8000
FF8000
FF8000
FF8000
FFFFF8
FFFFF8
FFFFF8
FFFFF8
FFFFF8
FFFFF8
ENDCHAR
STARTCHAR ecaron
ENCODING 283
SWIDTH 781 0
DWIDTH 23 0
BBX 21 32 1 0
BITMAP
FF8FF8
FF8FF8
FF8FF8
1FFFC0
1FFFC0
1FFFC0
000000
000000
000000
FFFFF8
FFFFF8
FFFFF8
FFFFF8
FFFFF8
FF8FF8
FF8FF8
FF8FF8
FFFFF8
FFFFF8
FFFFF8
FFFFF8
FFFFF8
FFFFF8
FF8000
FF8000
FF8000
FFFFF8
FFFFF8
FFFFF8
FFFFF8
FFFFF8
FFFFF8
ENDCHAR
STARTCHAR dotlessi
ENCODING 305
SWIDTH 390 0
DWIDTH 12 0
BBX 9 23 1 0
BITMAP
FF80
FF80
FF80
FF80
FF80
FF80
FF80
FF80
FF80
FF80
FF80
FF80
FF80
FF80
FF80
FF80
FF80
FF80
FF80
FF80
FF80
FF80
FF80
ENDCHAR
STARTCHAR Ncaron
ENCODING 327
SWIDTH 878 0
DWIDTH 26 0
BBX 24 38 1 0
BITMAP
FF81FF
FF81FF
FF81FF
1FFFF8
1FFFF8
1FFFF8
000000
000000
000000
FF81FF
FF81FF
FF81FF
FF81FF
FF81FF
FF81FF
FFF1FF
FFF1FF
FFF1FF
FFF1FF
FFF1FF
FFFFFF
FFFFFF
FFFFFF
FFFFFF
FFFFFF
FFFFFF
FF8FFF
FF8FFF
FF8FFF
FF8FFF
FF8FFF
FF8FFF
FF81FF
FF81FF
FF81FF
FF81FF
FF81FF
FF81FF
ENDCHAR
STARTCHAR ncaron
ENCODING 328
SWIDTH 781 0
DWIDTH 23 0
BBX 21 32 1 0
BITMAP
FF8FF8
FF8FF8
FF8FF8
1FFFC0
1FFFC0
1FFFC0
000000
000000
000000
FFFFF8
FFFFF8
FFFFF8
FFFFF8
FFFFF8
FF8FF8
FF8FF8
FF8FF8
FF8FF8
FF8FF8
FF8FF8
FF8FF8
FF8FF8
FF8FF8
FF8FF8
FF8FF8
FF8FF8
FF8FF8
FF8FF8
FF8FF8
FF8FF8
FF8FF8
FF8FF8
ENDCHAR
STARTCHAR OE
ENCODING 338
SWIDTH 1171 0
DWIDTH 35 0
BBX 33 29 1 0
BITMAP
FFFFFFFF80
FFFFFFFF80
FFFFFFFF80
FFFFFFFF80
FFFFFFFF80
FFFFFFFF80
FF8FF80000
FF8FF80000
FF8FF80000
FF8FF80000
FF8FF80000
FF8FFFFF80
FF8FFFFF80
FF8FFFFF80
FF8FFFFF80
FF8FFFFF80
FF8FFFFF80
FF8FF80000
FF8FF80000
FF8FF80000
FF8FF80000
FF8FF80000
FF8FF80000
FFFFFFFF80
FFFFFFFF80
FFFFFFFF80
FFFFFFFF80
FFFFFFFF80
FFFFFFFF80
ENDCHAR
STARTCHAR oe
ENCODING 339
SWIDTH 1171 0
DWIDTH 35 0
BBX 33 23 1 0
BITMAP
FFFFFFFF80
FFFFFFFF80
FFFFFFFF80
FFFFFFFF80
FFFFFFFF80
FF8FF8FF80
FF8FF8FF80
FF8FF8FF80
FF8FFFFF80
FF8FFFFF80
FF8FFFFF80
FF8FFFFF80
FF8FFFFF80
FF8FFFFF80
FF8FF80000
FF8FF80000
FF8FF80000
FFFFFFFF80
FFFFFFFF80
FFFFFFFF80
FFFFFFFF80
FFFFFFFF80
FFFFFFFF80
ENDCHAR
STARTCHAR Rcaron
ENCODING 344
SWIDTH 781 0
DWIDTH 23 0
BBX 21 38 1 0
BITMAP
FF8FF8
FF8FF8
FF8FF8
1FFFC0
1FFFC0
1FFFC0
000000
000000
000000
FFFFF8
FFFFF8
FFFFF8
FFFFF8
FFFFF8
FFFFF8
FF8FF8
FF8FF8
FF8FF8
FF8FF8
FF8FF8
FFFFC0
FFFFC0
FFFFC0
FFFFF8
FFFFF8
FFFFF8
FF8FF8
FF8FF8
FF8FF8
FF8FF8
FF8FF8
FF8FF8
FF8FF8
FF8FF8
FF8FF8
FF8FF8
FF8FF8
FF8FF8
ENDCHAR
STARTCHAR rcaron
ENCODING 345
SWIDTH 683 0
DWIDTH 21 0
BBX 18 32 1 0
BITMAP
FC0FC0
FC0FC0
FC0FC0
1FFE00
1FFE00
1FFE00
000000
000000
000000
FFFFC0
FFFFC0
FFFFC0
FFFFC0
FFFFC0
FF8000
FF8000
FF8000
FF8000
FF8000
FF8000
FF8000
FF8000
FF8000
FF8000
FF8000
FF8000
FF8000
FF8000
FF8000
FF8000
FF8000
FF8000
ENDCHAR
STARTCHAR Scaron
ENCODING 352
SWIDTH 781 0
DWIDTH 23 0
BBX 21 38 1 0
BITMAP
FF8FF8
FF8FF8
FF8FF8
1FFFC0
1FFFC0
1FFFC0
000000
000000
000000
FFFFF8
FFFFF8
FFFFF8
FFFFF8
FFFFF8
FFFFF8
FF8000
FF8000
FF8000
FF8000
FF8000
FFFFF8
FFFFF8
FFFFF8
FFFFF8
FFFFF8
FFFFF8
000FF8
000FF8
000FF8
000FF8
000FF8
000FF8
FFFFF8
FFFFF8
FFFFF8
FFFFF8
FFFFF8
FFFFF8
ENDCHAR
STARTCHAR scaron
ENCODING 353
SWIDTH 781 0
DWIDTH 23 0
BBX 21 32 1 0
BITMAP
FF8FF8
FF8FF8
FF8FF8
1FFFC0
1FFFC0
1FFFC0
000000
000000
000000
FFFFF8
FFFFF8
FFFFF8
FFFFF8
FFFFF8
FF8000
FF8000
FF8000
FFFFF8
FFFFF8
FFFFF8
FFFFF8
FFFFF8
FFFFF8
000FF8
000FF8
000FF8
FFFFF8
FFFFF8
FFFFF8
FFFFF8
FFFFF8
FFFFF8
ENDCHAR
STARTCHAR Tcaron
ENCODING 356
SWIDTH 781 0
DWIDTH 23 0
BBX 21 38 1 0
BITMAP
FF8FF8
FF8FF8
FF8FF8
1FFFC0
1FFFC0
1FFFC0
000000
000000
000000
FFFFF8
FFFFF8
FFFFF8
FFFFF8
FFFFF8
FFFFF8
03FE00
03FE00
03FE00
03FE00
03FE00
03FE00
03FE00
03FE00
03FE00
03FE00
03FE00
03FE00
03FE00
03FE00
03FE00
03FE00
03FE00
03FE00
03FE00
03FE00
03FE00
03FE00
03FE00
ENDCHAR
STARTCHAR tcaron
ENCODING 357
SWIDTH 976 0
DWIDTH 29 0
BBX 27 29 1 0
BITMAP
FF803FE0
FF803FE0
FF803FE0
FF803FE0
FF803FE0
FF803FE0
FFFE07E0
FFFE07E0
FFFE3F00
FFFE3F00
FFFE3F00
FF800000
FF800000
FF800000
FF800000
FF800000
FF800000
FF800000
FF800000
FF800000
FF800000
FF800000
FF800000
FFFE0000
FFFE0000
FFFE0000
FFFE0000
FFFE0000
FFFE0000
ENDCHAR
STARTCHAR Uring
ENCODING 366
SWIDTH 781 0
DWIDTH 23 0
BBX 21 38 1 0
BITMAP
03FE00
03FE00
03FE00
03FE00
03FE00
03FE00
000000
000000
000000
FF8FF8
FF8FF8
FF8FF8
FF8FF8
FF8FF8
FF8FF8
FF8FF8
FF8FF8
FF8FF8
FF8FF8
FF8FF8
FF8FF8
FF8FF8
FF8FF8
FF8FF8
FF8FF8
FF8FF8
FF8FF8
FF8FF8
FF8FF8
FF8FF8
FF8FF8
FF8FF8
FFFFF8
FFFFF8
FFFFF8
FFFFF8
FFFFF8
FFFFF8
ENDCHAR
STARTCHAR uring
ENCODING 367
SWIDTH 781 0
DWIDTH 23 0
BBX 21 32 1 0
BITMAP
03FE00
03FE00
03FE00
03FE00
03FE00
03FE00
000000
000000
000000
FF8FF8
FF8FF8
FF8FF8
FF8FF8
FF8FF8
FF8FF8
FF8FF8
FF8FF8
FF8FF8
FF8FF8
FF8FF8
FF8FF8
FF8FF8
FF8FF8
FF8FF8
FF8FF8
FF8FF8
FFFFF8
FFFFF8
FFFFF8
FFFFF8
FFFFF8
FFFFF8
ENDCHAR
STARTCHAR Ydieresis
ENCODING 376
SWIDTH 781 0
DWIDTH 23 0
BBX 21 38 1 0
BITMAP
FF8FF8
FF8FF8
FF8FF8
FF8FF8
FF8FF8
FF8FF8
000000
000000
000000
FF8FF8
FF8FF8
FF8FF8
FF8FF8
FF8FF8
FF8FF8
FF8FF8
FF8FF8
FF8FF8
FF8FF8
FF8FF8
FFFFF8
FFFFF8
FFFFF8
FFFFF8
FFFFF8
FFFFF8
03FE00
03FE00
03FE00
03FE00
03FE00
03FE00
03FE00
03FE00
03FE00
03FE00
03FE00
03FE00
ENDCHAR
STARTCHAR Zcaron
ENCODING 381
SWIDTH 781 0
DWIDTH 23 0
BBX 21 38 1 0
BITMAP
FF8FF8
FF8FF8
FF8FF8
1FFFC0
1FFFC0
1FFFC0
000000
000000
000000
FFFFF8
FFFFF8
FFFFF8
FFFFF8
FFFFF8
FFFFF8
000FF8
000FF8
007FF8
007FF8
007FF8
03FFC0
03FFC0
03FFC0
1FFE00
1FFE00
1FFE00
FFF000
FFF000
FFF000
FF8000
FF8000
FF8000
FFFFF8
FFFFF8
FFFFF8
FFFFF8
FFFFF8
FFFFF8
ENDCHAR
STARTCHAR zcaron
ENCODING 382
SWIDTH 781 0
DWIDTH 23 0
BBX 21 32 1 0
BITMAP
FF8FF8
FF8FF8
FF8FF8
1FFFC0
1FFFC0
1FFFC0
000000
000000
000000
FFFFF8
FFFFF8
FFFFF8
FFFFF8
FFFFF8
007FF8
007FF8
007FF8
03FFC0
03FFC0
03FFC0
1FFE00
1FFE00
1FFE00
FFF000
FFF000
FFF000
FFFFF8
FFFFF8
FFFFF8
FFFFF8
FFFFF8
FFFFF8
ENDCHAR
STARTCHAR florin
ENCODING 402
SWIDTH 585 0
DWIDTH 18 0
BBX 15 35 1 -6
BITMAP
FFFE
FFFE
FFFE
FFFE
FFFE
FFFE
FF80
FF80
FFFE
FFFE
FFFE
FFFE
FFFE
FFFE
FF80
FF80
FF80
FF80
FF80
FF80
FF80
FF80
FF80
FF80
FF80
FF80
FF80
FF80
FF80
FF80
FF80
FF80
FF80
FF80
FF80
ENDCHAR
STARTCHAR endash
ENCODING 8211
SWIDTH 488 0
DWIDTH 15 0
BBX 12 5 1 12
BITMAP
FFF0
FFF0
FFF0
FFF0
FFF0
ENDCHAR
STARTCHAR emdash
ENCODING 8212
SWIDTH 683 0
DWIDTH 21 0
BBX 18 5 1 12
BITMAP
FFFFC0
FFFFC0
FFFFC0
FFFFC0
FFFFC0
ENDCHAR
STARTCHAR quoteleft
ENCODING 8216
SWIDTH 390 0
DWIDTH 12 0
BBX 9 11 1 18
BITMAP
FF80
FF80
FF80
FF80
FF80
FF80
FC00
FC00
1F80
1F80
1F80
ENDCHAR
STARTCHAR quoteright
ENCODING 8217
SWIDTH 390 0
DWIDTH 12 0
BBX 9 11 1 18
BITMAP
FF80
FF80
FF80
FF80
FF80
FF80
1F80
1F80
FC00
FC00
FC00
ENDCHAR
STARTCHAR quotedblleft
ENCODING 8220
SWIDTH 781 0
DWIDTH 23 0
BBX 21 11 1 18
BITMAP
FF8FF8
FF8FF8
FF8FF8
FF8FF8
FF8FF8
FF8FF8
FC0FC0
FC0FC0
1F81F8
1F81F8
1F81F8
ENDCHAR
STARTCHAR quotedblright
ENCODING 8221
SWIDTH 781 0
DWIDTH 23 0
BBX 21 11 1 18
BITMAP
FF8FF8
FF8FF8
FF8FF8
FF8FF8
FF8FF8
FF8FF8
1F81F8
1F81F8
FC0FC0
FC0FC0
FC0FC0
ENDCHAR
STARTCHAR ellipsis
ENCODING 8230
SWIDTH 1171 0
DWIDTH 35 0
BBX 33 6 1 0
BITMAP
FF8FF8FF80
FF8FF8FF80
FF8FF8FF80
FF8FF8FF80
FF8FF8FF80
FF8FF8FF80
ENDCHAR
STARTCHAR .notdef
ENCODING -1
SWIDTH 781 0
DWIDTH 23 0
BBX 21 29 1 0
BITMAP
FFFFF8
FFFFF8
FFFFF8
E00038
E00038
E00038
E00038
E00038
E00038
E00038
E00038
E00038
E00038
E00038
E00038
E00038
E00038
E00038
E00038
E00038
E00038
E00038
E00038
E00038
E00038
E00038
FFFFF8
FFFFF8
FFFFF8
ENDCHAR
ENDFONT
